<svg xmlns="http://www.w3.org/2000/svg" viewBox="0 0 17.21519 20.00063"><title>copy-icon-2</title><g id="2aa2f2e3-0488-4e53-810c-38e7a917f522" data-name="Layer 2"><g id="5f883e30-76ea-42bc-974f-361a2665b2f2" data-name="Layer 1"><path d="M3.99534,3.34273c0-.36879-.02129-.681.00385-.9894A1.90022,1.90022,0,0,1,5.95122.513Q10.31728.49007,14.68353.50806A1.92,1.92,0,0,1,16.7081,2.53964q.01329,6.01139.00128,12.0228a1.94644,1.94644,0,0,1-2.0349,2.09322c-.45892.01617-.91889.0026-1.41608.0026-.01715.38507-.01623.71846-.04962,1.04838a1.88411,1.88411,0,0,1-1.87992,1.77826q-4.46086.0289-8.922-.00239A1.888,1.888,0,0,1,.51,17.52241Q.49236,11.44779.50719,5.37308A1.92241,1.92241,0,0,1,2.47533,3.34659C2.95453,3.32313,3.43583,3.34273,3.99534,3.34273Zm12.1133,5.21783c0-1.981.00644-3.962-.00268-5.943a1.34217,1.34217,0,0,0-1.52454-1.51219q-4.20429-.00706-8.4086.00461c-1.09769.00361-1.59556.49706-1.59693,1.57735q-.00747,5.91133.0019,11.82268A1.39141,1.39141,0,0,0,6.1479,16.06154q4.17272.00465,8.34542.0007c1.11725-.00128,1.61284-.50047,1.61485-1.62195Q16.11345,11.50044,16.10864,8.56056ZM3.98709,3.932c-.46179,0-.83673-.00061-1.21166.00011-1.16693.00226-1.668.48764-1.66892,1.6371q-.00459,5.821-.0004,11.642c.00087,1.22759.45713,1.67976,1.6775,1.67986q4.01775.00033,8.03549-.002c1.49963-.0012,2.03408-.66307,1.73964-2.20337-.195-.00875-.40087-.02576-.6068-.026q-2.81559-.00341-5.63117-.00127c-1.59085.00182-2.32888-.72093-2.33207-2.30932q-.00737-3.66973-.0016-7.3395C3.98706,6.02,3.98709,5.03041,3.98709,3.932Z" style="fill:none;stroke:#efc4a2;stroke-miterlimit:10;stroke-width:1.0006299212598426px"/></g></g></svg>