<svg xmlns="http://www.w3.org/2000/svg" viewBox="0 0 16.21455 19.00012"><title>copy-icon</title><g id="1dee72ff-ef2b-4803-bbe0-b5737f5fbf59" data-name="Layer 2"><g id="cb9f334c-d2bf-47af-b9ee-98b20a01bc15" data-name="Layer 1"><path d="M10.31509,0q-2.432,0-4.8642.0127a1.90023,1.90023,0,0,0-1.952,1.84045c-.02515.30835-.00385.6206-.00385.98938-.35052,0-.67041-.00769-.97827-.00769-.18353,0-.36279.00268-.54175.01147A1.92247,1.92247,0,0,0,.00686,4.8728q-.0151,6.07472.00275,12.14942A1.88813,1.88813,0,0,0,1.90652,18.9823q2.20322.0185,4.40625.01782,2.25779,0,4.51581-.0155a1.884,1.884,0,0,0,1.87988-1.7782c.03339-.33.03247-.66333.04962-1.04834.31092,0,.60724.00525.89783.00525.17419,0,.34631-.00183.51825-.00793a1.94636,1.94636,0,0,0,2.03491-2.09314q.01117-6.01153-.00128-12.02283A1.92006,1.92006,0,0,0,14.18319.00781Q12.249.00013,10.31509,0Zm-.02051,15.56409q-2.32351,0-4.647-.00281a1.39142,1.39142,0,0,1-1.57013-1.55151q-.01053-5.9112-.00189-11.82264C4.07693,1.10681,4.57479.6134,5.67251.60974q2.462-.00805,4.9234-.00757,1.74234,0,3.48517.003a1.34215,1.34215,0,0,1,1.52454,1.51221c.00915,1.98084.00268,3.96192.00268,5.94287q.00083,2.93994-.00043,5.87976c-.002,1.12146-.49762,1.62061-1.61486,1.622q-1.84927.00221-3.69843.00208ZM4.27841,18.39087q-.99738,0-1.99512-.00012c-1.22034,0-1.67664-.45227-1.67749-1.67981Q.60167,10.89.60623,5.069c.00085-1.14941.50195-1.63489,1.66888-1.63709.14038-.00024.2807-.00036.42566-.00036.24219,0,.49713.00024.786.00024,0,1.09839-.00006,2.088,0,3.07764q.00018,3.66979.00159,7.33948A2.01791,2.01791,0,0,0,5.81442,16.1582h.006q1.04178-.00127,2.0835-.00122,1.77374,0,3.54766.00244c.20594.00025.41187.01734.60682.026.29443,1.54029-.24006,2.20228-1.73963,2.20337q-3.02041.00256-6.0404.00208Z" style="fill:#8b4d6f"/></g></g></svg>