<svg xmlns="http://www.w3.org/2000/svg" viewBox="0 0 489.55627 383.24712"><defs><style>.\30 2963572-037c-4d09-912d-934a0732fd25{fill:none;stroke:#edc4a4;stroke-miterlimit:10;stroke-width:0.28346px;}</style></defs><title>daedalus</title><g id="f1d867b2-c7e5-4025-89df-11e9a2d0a10b" data-name="Layer 2"><g id="65ad9f35-e165-4828-ac64-ce8934f824e5" data-name="Layer 1"><g id="cb369579-db3f-48f7-8254-68189008f3b4" data-name="Page-1"><g id="84dbbd70-74fd-457c-80ff-ea8363a206c6" data-name="full"><path id="7da33417-0cef-41ae-b513-7cbf2f2d95a3" data-name="Combined-Shape" class="02963572-037c-4d09-912d-934a0732fd25" d="M214.41471,354.99122l-25.865-3.936L175.05488,312.82l9.55881-1.12457,10.68339,30.36331,19.11765,3.37369a28.64073,28.64073,0,0,1,3.936-9.55882,27.769,27.769,0,0,1,11.24566-10.12109v-8.43426a92.80994,92.80994,0,0,1-50.04322-28.11417c-1.68684-2.24914-3.3737-3.936-5.06055-6.1851l8.43426-4.49827a31.19146,31.19146,0,0,0,3.37369,4.49827,75.862,75.862,0,0,0,37.673,23.6159,61.60924,61.60924,0,0,0,14.61936,3.37369v49.48094l-15.18166-2.24914a22.48955,22.48955,0,0,0,5.62284,10.12109,20.37,20.37,0,0,0,29.23872,0,23.88535,23.88535,0,0,0,5.62283-9.55882l-14.61936,2.24914V309.44627a61.6095,61.6095,0,0,0,14.61936-3.37369,78.39116,78.39116,0,0,0,37.673-23.61591,28.16207,28.16207,0,0,1,3.936-4.49826l8.43425,4.49826a59.75119,59.75119,0,0,1-5.06056,6.18511C296.50807,303.26114,278.515,313.38226,258.8351,316.756v9.55882a38.79746,38.79746,0,0,1,10.1211,8.99653,35.9333,35.9333,0,0,1,4.49826,10.68339l20.2422-3.37369,10.68339-30.36331,9.55882,1.12457-13.49481,38.23527-26.42732,4.49826a28.53356,28.53356,0,0,1-8.43425,17.99307,29.87131,29.87131,0,0,1-42.73353,0C218.35069,368.486,214.977,362.30092,214.41471,354.99122Zm15.74395-17.993a24.45525,24.45525,0,0,0-3.37369,3.936,20.78531,20.78531,0,0,0-2.81142,6.18511l5.62283,1.12457V336.99817Zm33.737,10.12109a34.39437,34.39437,0,0,0-2.81141-6.7474,9.87151,9.87151,0,0,0-2.24915-2.81142v10.1211ZM412.33849.1904,489.3713,102.526l-86.59165,92.21447L353.861,181.80793l-2.81142,19.11765-12.37024,1.68684c-2.24914-12.37024-7.872-24.17818-15.18166-34.29929l6.74741-6.18512a96.63731,96.63731,0,0,1,12.93251,23.61591L345.42673,170,399.406,184.61935l77.03281-82.65566-44.98267-60.7266L454.5097,91.28031l-52.29237,50.60551-9.5588-3.936,7.3097-7.30968,1.68687-1.68684,5.06055-5.06055h0L442.7018,89.03119,403.90424,4.68868ZM258.8351,137.38755l29.23874-26.98961,12.93252.56228-9.55882,8.99654L282.451,128.391a101.35479,101.35479,0,0,1,28.11417,14.05709l-6.7474,6.7474A87.02772,87.02772,0,0,0,274.579,135.7007l-3.936,3.936C267.83163,139.0744,263.33337,137.94983,258.8351,137.38755Zm54.5415-25.30276h0l51.1678,2.81142,26.4273,11.808-7.3097,7.30968L362.29521,124.455l-5.62283-.56228-28.11417,27.55188-10.68339,10.1211q-3.37371-3.37369-6.74741-6.74741l6.74741-6.7474h0l5.06056-5.06055h0l20.24219-20.24221L304.38,120.519Zm-63.538,66.34945V146.38408a62.61308,62.61308,0,0,1,9.55882,1.12457v9.55883h0v14.61937a58.79966,58.79966,0,0,1,21.36676,10.68338l11.24567-10.1211a70.28368,70.28368,0,0,0-23.05361-12.37024V149.7578a92.92987,92.92987,0,0,1,37.1107,22.49133l-15.18166,13.49479h0l-2.81142,2.81142a57.2713,57.2713,0,0,1,11.808,16.8685c.56227.56228.56227,1.12457,1.12457,2.24914l-8.43425,3.936a2.06563,2.06563,0,0,1-.56228-1.68684,50.43582,50.43582,0,0,0-25.30275-25.30276A56.29359,56.29359,0,0,0,249.83858,178.43424Zm55.10377,6.74741,6.7474-6.18512a89.89147,89.89147,0,0,1,16.8685,35.42386l11.808-1.68685h0l9.55882-1.68684-7.30968,52.29235-23.05361,33.737-2.24914,6.74739-9.55883-.56228,3.3737-10.1211,22.49133-33.17473,5.06056-37.11069-4.49826.56227h0l-13.49481,1.68685-15.18166,2.24914v4.49826c0,7.872-1.12457,15.74394-3.936,22.49134l13.49481,6.74741a85.975,85.975,0,0,0,6.18511-26.9896l9.55882-1.68685a77.47749,77.47749,0,0,1-11.24566,41.04669l-21.36677-11.24567-.56227-.56228a50.95661,50.95661,0,0,1-6.18511,8.99653,62.74163,62.74163,0,0,1-32.05016,20.80449v6.74738a47.61917,47.61917,0,0,1-9.55882,2.24914V187.99306a61.43744,61.43744,0,0,1,9.55882,2.81142v91.65219c9.55882-3.37369,18.55535-8.99652,24.74048-16.8685a53.43081,53.43081,0,0,0,12.37024-34.29928V227.9152L282.451,230.16434v24.17818h-9.55882V221.73009l46.10724-7.30968C316.75029,204.29927,311.68975,194.17817,304.94235,185.18165ZM77.21756.1904l7.872,5.06055L46.292,89.59346,82.27811,124.455h0l5.06054,5.06055,1.68686,1.68685,7.30968,7.30968-9.55882,3.936L34.484,91.84258,57.53764,41.79936,12.555,101.9637,89.5878,184.61935,143.567,170l2.24913,15.74394A120.026,120.026,0,0,1,158.74865,162.128l6.74741,6.18512a94.29289,94.29289,0,0,0-15.18166,34.29929l-12.37024-1.68684-2.81142-19.11765L86.21409,194.74045.18474,102.526ZM187.9874,110.96023l12.93252-.56228,29.23874,26.98961c-3.936.56228-8.43425,1.12457-11.80794,2.24913l-3.936-3.936A92.39435,92.39435,0,0,0,185.176,149.1955l-6.74741-6.7474A101.35479,101.35479,0,0,1,206.54275,128.391l-8.99652-8.43425Zm-62.97574,3.936,51.73008-2.81142-.56229.56229,8.99654,8.43425-39.35984,2.24913,20.2422,20.24221h0l5.06055,5.06054h0l6.74741,6.74741c-2.24914,2.24913-4.49827,3.936-6.74741,6.74741l-10.68338-10.1211L132.32135,124.455l-5.62284.56229-21.36676,9.55882-7.30968-7.30968ZM225.0981,148.07093c3.936-.56229,10.1211-1.12457,14.05708-1.68685V275.70927a61.43776,61.43776,0,0,1-9.55882-2.81142V156.50519c-12.37024,2.24913-23.05361,7.872-32.61243,15.18166L208.2296,181.808a134.5238,134.5238,0,0,1,11.80794-7.30967v10.68339a51.889,51.889,0,0,0-23.05361,25.865l-8.43425-3.936a54.85418,54.85418,0,0,1,12.93251-19.11765l-2.81142-2.24914h0l-15.18165-14.05708A90.56079,90.56079,0,0,1,225.0981,148.07093Zm-64.10031,66.34944a79.82825,79.82825,0,0,1,16.86851-35.42385l6.74739,6.18511a75.177,75.177,0,0,0-14.05709,30.36331l46.10725,7.30968v32.61243H207.105V231.28887l-14.05709-2.24914v3.37369a53.43072,53.43072,0,0,0,12.37024,34.29928,50.863,50.863,0,0,0,18.55535,14.05708h0c.56227.56228,1.12457.56228,1.68684,1.12457.56228,0,1.12457.56228,1.68685.56228s1.12457.56227,1.68685.56227.56227,0,1.12457.56228h0a47.61969,47.61969,0,0,0,9.55882,2.24914v14.61936a58.82341,58.82341,0,0,1-9.55882-2.24914V293.14c-12.93252-3.37369-23.61591-10.68339-32.05016-20.80449a50.95555,50.95555,0,0,1-6.18511-8.99653l-.56228.00007-21.36676,11.24566A93.26507,93.26507,0,0,1,158.74866,233.538l9.55882,1.68685a85.51137,85.51137,0,0,0,5.62284,26.9896l13.49481-6.74741a61.168,61.168,0,0,1-3.936-22.49134v-4.49826l-14.61938-3.37369-13.4948-2.24914h0l-4.49826-.56228,5.06054,37.1107,22.49134,33.17473,3.37369,10.12109-9.55881,1.12458-2.24913-6.74741-23.05362-33.737L139.631,211.04667l9.55882,1.68685h0Z"/></g></g></g></g></svg>
