<svg xmlns="http://www.w3.org/2000/svg" viewBox="0 0 1883.97912 2116.35803"><title>lines</title><g id="9b5fc8e6-6e9b-4788-b602-2a114057359c" data-name="Layer 2"><g id="36f277c6-0d50-4bea-b795-a185e633a17f" data-name="Layer 1"><g style="opacity:0.8"><g style="opacity:0.7000000000000001"><path d="M498.75181,520.64193c-84.42188,159.228-199.94825,377.26086-130.02491,527.34942,35.14209,75.404,101.7002,103.785,160.44629,128.7945.332.141.67725.2832,1.00879.43084,55.23828,23.62256,118.669,14.74817,164.66162-23.90045q4.36671-3.67575,8.81006-7.39776c90.44824-75.89374,202.98584-170.38214,249.72217-265.06934,33.02637-67.00616,53.31787-131.24091,72.90332-193.41821,30.71631-97.44013,65.74854-195.928,142.55859-308.95874C1349.89536,112.03511,1460.05649,32.19136,1117.067.28469L713.55649,37.78737C508.95737,138.87325,635.45005,203.85915,571.75815,371.02364,555.75571,413.06936,529.34067,462.90468,498.75181,520.64193Z" style="fill:none;stroke:#edc4a4;stroke-miterlimit:10;stroke-width:0.5669291338582677px"/><path d="M476.76011,1422.00368c26.58349-43.7843,88.25146-140.31293,22.375-174.77783-61.89893-32.38245-152.21973-64.91632-199.80274-166.85883-86.01513-184.67169,39.813-422.15307,131.75928-595.61413,29.38672-55.4577,54.78906-103.36786,69.085-140.95337,49.61865-130.24817-51.34326-218.74616-244.50049-59.533l-8.06494,7.12414L116.161,1020.356c-22.31885,259.80993-197.96924,18.48852-69,224,67.7417,88.56982,134.70166,391.756,206,250C305.13267,1391.11684,415.07065,1523.71975,476.76011,1422.00368Z" style="fill:none;stroke:#edc4a4;stroke-miterlimit:10;stroke-width:0.5669291338582677px"/><path d="M1100.90513,1351.57991c-6.12964-.0805-11.96582-.1231-17.272-.16565-37.48779-.26507-72.855-.53015-99.66455-5.86932-18.28955-3.63519-31.92138-14.23779-38.35888-29.801-17.6836-42.67554,23.66674-107.9574,92.54589-210.91638,20.86451-31.23987,42.48633-63.50214,58.27637-90.84174,42.44849-73.46106,122.148-233.33337,176.458-363.10193,84.821-202.6615,205.9939-161.15979,270.44263-112.69067,113.64673,85.46942,287.615,3.70617,185.792-157.20752-23.22192-32.55262-49.26831-62.63343-77.15723-90.98871l-208.3645-89.82752c-66.82275,38.63654-136.1853,112.00458-212.74414,223.13263-70.50781,102.34851-101.36768,191.29071-131.57617,287.13294-20.45532,64.90906-41.57813,132.03766-77.22461,204.27283-53.85767,109.16662-173.24072,209.36828-269.16846,289.87463-62.02734,52.01825-183.82178,212.9602-210.65185,257.147-60.9458,100.45606-115.38282,223.17163-180.6167,314.95593-112.81885,158.73743-86.74854,241.21375,34.32959,339.28174l409.36865-461.39367c259.23413,73.16748,285.81152-25.825,355.92627-219.18091C1175.96811,1394.79177,1144.09653,1352.129,1100.90513,1351.57991Z" style="fill:none;stroke:#edc4a4;stroke-miterlimit:10;stroke-width:0.5669291338582677px"/><path d="M1880.264,794.02883c-24.39087-224.4632-141.57812-172.63342-177.28613-156.52118l.0376.08514c-60.88916,29.95246-120.94556,109.207-178.42676,235.60541-16.09326,35.25372-32.18652,74.67273-49.22656,120.49121-33.51172,90.08441-107.91944,195.0882-167.7107,279.41687-28.68872,40.503-53.36328,75.43958-67.60107,100.25165a2.86059,2.86059,0,0,0-.24634.54907c-13.47095,41.97974-178.58789,335.49243,35.46216,287.39722,6.31421-1.76072,12.82715-3.01978,19.0752-4.92261,2.74536-.78577,5.47168-1.562,8.33056-2.4519,336.39673-106.21558,581.02368-421.08966,581.02368-792.1341C1883.69565,838.91951,1882.08628,816.44106,1880.264,794.02883ZM1704.4498,1033.46816l-138.80908,255.22021c-37.07593,68.63306-102.33911,42.55249-86.75683,16.52875,40.394-67.45447,151.05883-282.33264,201.14672-364.73016C1690.12192,923.88253,1745.464,938.74508,1704.4498,1033.46816Z" style="fill:none;stroke:#edc4a4;stroke-miterlimit:10;stroke-width:0.5669291338582677px"/><path d="M1261.0521,833.65609c-54.12549,96.73944-85.59717,153.34985-117.05957,207.82086-16.69922,28.89209-38.77539,61.94958-60.16992,93.90887-24.083,36.01581-36.437,48.67743-54.561,84.537-37.03808,73.30481,50.96362,78.07129,116.97461,78.07129,46.126,0,96.89063-24.84046,137.0293-89.61585,0,0,100.23266-152.83392,133.82031-235.17462,25.749-63.12347,20.17334-136.02594-16.36792-162.21063C1366.36362,786.37978,1301.16685,761.95589,1261.0521,833.65609Z" style="fill:none;stroke:#edc4a4;stroke-miterlimit:10;stroke-width:0.5669291338582677px"/></g></g><circle cx="1769.66099" cy="796.85598" r="50.5" style="fill:#8c4c6f"/><circle cx="1298.16099" cy="499.35598" r="14" style="fill:#8b4d6f"/><circle cx="1553.66099" cy="732.85598" r="88.5" style="fill:none;stroke:#edc4a4;stroke-miterlimit:10;stroke-width:0.45354330708661417px;opacity:0.8"/><path d="M1553.661,644.356a88.49793,88.49793,0,0,0-3.94263,176.90808q41.05005-79.50256,83.4602-127.29041A88.49968,88.49968,0,0,0,1553.661,644.356Z" style="fill:#babab6"/></g></g></svg>