<svg xmlns="http://www.w3.org/2000/svg" viewBox="0 0 1884.41282 2116.87481"><title>lines</title><g id="0c896977-ab9e-4be4-a746-fe21d7e4ef82" data-name="Layer 2"><g id="e4f2f7bd-94d6-4d9f-9f6e-3c1cf4527973" data-name="Layer 1"><g style="opacity:0.7000000000000001"><path d="M498.96866,520.85971c-84.42188,159.228-199.94825,377.26087-130.02491,527.34943,35.14209,75.404,101.7002,103.785,160.44629,128.79449.332.14106.67725.28321,1.00879.43085,55.23828,23.62256,118.669,14.74817,164.66162-23.90045q4.36671-3.67575,8.81006-7.39777c90.44824-75.89374,202.98584-170.38214,249.72217-265.06933,33.02637-67.00617,53.31787-131.24091,72.90332-193.41822,30.71631-97.44012,65.74854-195.928,142.55859-308.95874C1350.11221,112.2529,1460.27334,32.40915,1117.28384.50247L713.77334,38.00516C509.17422,139.091,635.6669,204.07694,571.975,371.24143,555.97256,413.28714,529.55752,463.12247,498.96866,520.85971Z" style="fill:none;stroke:#edc4a4;stroke-miterlimit:10;stroke-width:1.00062992125984px"/><path d="M476.977,1422.22147c26.58349-43.7843,88.25146-140.31293,22.375-174.77783-61.89893-32.38245-152.21973-64.91633-199.80274-166.85883-86.01513-184.67169,39.813-422.15308,131.75928-595.61414,29.38672-55.4577,54.78906-103.36786,69.085-140.95337,49.61865-130.24816-51.34326-218.74615-244.50049-59.533l-8.06494,7.12415L116.37784,1020.57376c-22.31885,259.80994-197.96924,18.48853-69,224,67.7417,88.56983,134.70166,391.756,206,250C305.34952,1391.33463,415.2875,1523.93753,476.977,1422.22147Z" style="fill:none;stroke:#edc4a4;stroke-miterlimit:10;stroke-width:1.00062992125984px"/><path d="M1101.122,1351.7977c-6.12964-.08051-11.96582-.12311-17.272-.16565-37.48779-.26507-72.855-.53015-99.66455-5.86932-18.28955-3.6352-31.92138-14.2378-38.35888-29.801-17.6836-42.67553,23.66674-107.95739,92.5459-210.91638,20.8645-31.23987,42.48632-63.50214,58.27636-90.84174,42.44849-73.461,122.14795-233.33337,176.458-363.10192,84.82105-202.6615,205.9939-161.15979,270.44263-112.69068,113.64673,85.46942,287.615,3.70618,185.792-157.20752-23.22192-32.55261-49.26831-62.63342-77.15723-90.98871l-208.3645-89.82751c-66.82275,38.63654-136.1853,112.00458-212.74414,223.13263-70.50781,102.34851-101.36768,191.29071-131.57617,287.13293-20.45532,64.90906-41.57813,132.03766-77.22461,204.27283-53.85767,109.16663-173.24072,209.36829-269.16846,289.87463-62.02734,52.01825-183.82178,212.96021-210.65185,257.147-60.9458,100.45605-115.38282,223.17163-180.6167,314.95593C249.019,1935.64066,275.08926,2018.117,396.16739,2116.185L805.536,1654.79129c259.23413,73.16748,285.81152-25.82495,355.92627-219.18091C1176.185,1395.00955,1144.31338,1352.34677,1101.122,1351.7977Z" style="fill:none;stroke:#edc4a4;stroke-miterlimit:10;stroke-width:1.00062992125984px"/><path d="M1880.48086,794.24661C1856.09,569.78342,1738.90274,621.61319,1703.19473,637.72543l.0376.08515c-60.88916,29.95245-120.94556,109.207-178.42676,235.60541-16.09326,35.25372-32.18652,74.67273-49.22656,120.49121-33.51172,90.08441-107.91944,195.08819-167.7107,279.41687-28.68872,40.503-53.36328,75.43957-67.60107,100.25165a2.86032,2.86032,0,0,0-.24634.54907c-13.47094,41.97973-178.58789,335.49243,35.46216,287.39721,6.31421-1.76072,12.82715-3.01977,19.0752-4.9226,2.74536-.78577,5.47168-1.562,8.33056-2.45191,336.39673-106.21557,581.02368-421.08966,581.02368-792.13409C1883.9125,839.1373,1882.30313,816.65885,1880.48086,794.24661Zm-175.81421,239.43933-138.80908,255.22022c-37.07593,68.63306-102.33911,42.55249-86.75683,16.52875,40.394-67.45447,151.05883-282.33264,201.14673-364.73017C1690.33877,924.10031,1745.68081,938.96286,1704.66665,1033.68594Z" style="fill:none;stroke:#edc4a4;stroke-miterlimit:10;stroke-width:1.00062992125984px"/><path d="M1261.26895,833.87387c-54.12549,96.73944-85.59717,153.34986-117.05957,207.82086-16.69922,28.89209-38.77539,61.94959-60.16992,93.90888-24.083,36.01581-36.437,48.67743-54.561,84.537-37.03808,73.30481,50.96363,78.07128,116.97461,78.07128,46.126,0,96.89063-24.84045,137.0293-89.61584,0,0,100.23266-152.83392,133.82031-235.17462,25.749-63.12348,20.17334-136.02594-16.36792-162.21063C1366.58047,786.59757,1301.3837,762.17368,1261.26895,833.87387Z" style="fill:none;stroke:#edc4a4;stroke-miterlimit:10;stroke-width:1.00062992125984px"/></g><path d="M1704.66665,1033.68594l-138.80908,255.22022c-37.07593,68.63306-102.33911,42.55249-86.75683,16.52869,40.394-67.45435,151.05883-282.33252,201.14673-364.73011C1690.33877,924.10037,1745.68081,938.96292,1704.66665,1033.68594Z" style="fill:none;stroke:#d4ae99;stroke-miterlimit:10;stroke-width:0.283464566929134px"/></g></g></svg>