<svg xmlns="http://www.w3.org/2000/svg" viewBox="0 0 65 91.6374"><title>logo</title><g id="c2359703-2029-4cdb-a7c8-5fb4ef859cbc" data-name="Layer 2"><g id="2ecf33d5-212e-46d9-a874-c6c66532a620" data-name="Layer 1"><path d="M57,28.36829A19.20642,19.20642,0,1,0,37.79223,47.57471,19.20629,19.20629,0,0,0,57,28.36829Z" style="fill:#8b4d6f"/><path d="M32.5,0A32.07477,32.07477,0,1,0,64.57483,32.07471,32.111,32.111,0,0,0,32.5,0ZM19.28839,15.42847c.28278-.71619.481-1.28247.62354-1.78223a7.59724,7.59724,0,0,0,.29431-1.984c.00073-.03808.004-.0791.00757-.12012.002-.02246.00451-.04467.00451-.06518a12.34106,12.34106,0,0,0-.149-1.71485c-.26215-1.89929-.26813-2.96777,2.53448-4.67663l.03247-.01978.0354-.01367a3.33937,3.33937,0,0,1,1.18042-.26513,1.275,1.275,0,0,1,.811.25268c.94946.74878.74591,2.8988.3811,5.63147a20.76542,20.76542,0,0,0-.23767,2.4148c0,3.92651-.20453,6.34423-1.32227,8.66223a1.14937,1.14937,0,0,0,.53974,1.53235,1.09955,1.09955,0,0,0,.4873.11547,1.03918,1.03918,0,0,0,.94483-.62439c1.35894-2.6333,1.43963-5.35669,1.52508-8.24011l.00257-.08337c.01379-.4491.02777-.90088.04669-1.356.28351-6.717,2.06836-9.84546,5.61694-9.84546,3.44147.02368,5.0921.38574,5.56049,1.21143.55816.98218-.494,2.77319-2.08667,5.48413-.44873.76453-.93232,1.58826-1.43848,2.49036A27.897,27.897,0,0,0,31.749,20.55261a32.94836,32.94836,0,0,1-1.40881,5.00171c-.96088,2.45569-3.57471,5.06189-5.675,7.156l-.20752.20752a3.8057,3.8057,0,0,1-2.70733,1.11889,4.018,4.018,0,0,1-1.26368-.20581c-1.50512-.49316-3.21234-1.05249-4.23309-2.8269-2.04968-3.56629.38232-9.28589,2.15814-13.46216C18.73181,16.7865,19.03,16.08252,19.28839,15.42847Zm-6.3139,35.844a2.6486,2.6486,0,0,1-.47748.04285,4.27349,4.27349,0,0,1-3.00067-1.5365c-.24542-.32227-.44672-.62085-.64789-.91968l-.18909-.27966c-.06646-.09754-.13519-.194-.20392-.29041-.11474-.161-.22937-.32226-.33471-.48791-.18225-.28662-.34827-.58045-.5141-.87451l-.17688-.31177c-.06079-.10657-.12348-.21118-.18616-.31592-.105-.17554-.21-.35107-.30517-.53088-.15479-.29273-.293-.59156-.4311-.89075l-.1513-.32556c-.05152-.10974-.10517-.21814-.15882-.32666-.092-.18616-.18389-.37244-.26574-.56262-.15351-.35743-.287-.72168-.42029-1.08606l-.10571-.2876c-.03852-.10462-.07959-.20752-.12061-.31055-.06415-.16089-.12811-.322-.18323-.486-.13568-.40381-.2489-.81555-.35833-1.21375l-.06806-.24682c-.02722-.09741-.05719-.1947-.08716-.29212-.04858-.1582-.097-.31628-.13647-.47692-.10108-.40552-.17926-.819-.25488-1.21888l-.05054-.26611c-.02008-.10474-.04309-.20862-.066-.3125-.03516-.15906-.07007-.31824-.09644-.47925-.09015-.55371-.14758-1.11706-.20312-1.66174-.01245-.12024-.02393-.20288-.03528-.28552-.01709-.12391-.03387-.24781-.0437-.37317-.06287-.77539-.09485-1.56726-.09485-2.3523a28.93314,28.93314,0,0,1,7.94153-19.90771l.18274-.19019c.26782-.26172.52429-.49524.80786-.73694.05987-.05114.11865-.09887.17737-.1466l.05438-.04419q.276-.22467.53595-.4126l.05615-.04065c.05768-.04175.1153-.08337.17157-.12158.20941-.1427.413-.27014.60791-.37927l.08612-.05042a5.86794,5.86794,0,0,1,.60334-.28393c.05932-.02405.11627-.044.17321-.06373.16791-.05908.29578-.0979.4173-.12817.0802-.0199.14337-.03528.20288-.04651a2.94493,2.94493,0,0,1,.41223-.04712.93107.93107,0,0,1,.10651-.00769h.03412l.07623.00977a2.06061,2.06061,0,0,1,.402.0498,1.64117,1.64117,0,0,1,.44586.18128c.81891.48767,1.0766,1.672.67108,3.09009a35.73735,35.73735,0,0,1-1.42743,3.67858c-1.94946,4.58863-4.61938,10.87293-2.01922,15.39759A6.63711,6.63711,0,0,0,15.978,34.03a11.62932,11.62932,0,0,0,3.12469,1.63782c.23688.0924.465.18164.68079.272a1.15436,1.15436,0,0,1,.67376.66968c.31812.855-.23278,2.16882-.87554,3.4613l-.06214.12427c-1.33594,2.70129-2.84228,5.74707-3.926,8.45508A3.763,3.763,0,0,1,12.97449,51.27246Zm23.37372,1.1698-.2259.62524c-1.76922,4.8993-2.83715,7.85645-7.13055,7.85645a18.98964,18.98964,0,0,1-4.97363-.85632c-.86536-.271-1.74311-.59034-2.55-.92725l-.02368-.00976-.02228-.0127c-2.87549-1.63037-4.62988-2.90979-5.08826-4.624-.34723-1.296.07074-2.88391,1.31537-4.99707a44.58363,44.58363,0,0,0,2.34851-4.938c.45862-1.07434.97858-2.29248,1.51856-3.38477A41.03191,41.03191,0,0,1,26.236,34.28479c2.24811-2.24207,5.04511-5.03162,6.17408-7.92078a34.72423,34.72423,0,0,0,1.50836-5.32617,24.72567,24.72567,0,0,1,2.67395-7.46863c2.473-4.34472,4.71606-6.57092,7.059-7.006a4.79677,4.79677,0,0,1,.87817-.08081c1.62164,0,3.33313.78272,5.38623,2.46326a35.19513,35.19513,0,0,1,6.41077,6.51111c1.41546,2.2362,1.43377,4.23266.06366,5.49707a4.35588,4.35588,0,0,1-2.93921,1.042,5.68057,5.68057,0,0,1-3.4375-1.18225,6.66249,6.66249,0,0,0-3.79736-1.43018,4.47692,4.47692,0,0,0-1.1731.15564c-1.90656.51721-3.50964,2.29993-4.76483,5.29871a135.62943,135.62943,0,0,1-6.19861,12.757c-.54.934-1.27032,2.0271-2.04352,3.18444C29.51,44.55493,28.11359,46.766,28.76471,48.33838a1.79288,1.79288,0,0,0,.2309.40234,1.986,1.986,0,0,0,1.22369.73181,20.71494,20.71494,0,0,0,3.61237.21021l.5274.00561a2.155,2.155,0,0,1,1.74207.92933A1.98436,1.98436,0,0,1,36.34821,52.44226ZM42.71912,25.533a3.90982,3.90982,0,1,1,3.90954,3.90979A3.91406,3.91406,0,0,1,42.71912,25.533Zm2.63116,10.64441a69.30377,69.30377,0,0,1-4.69452,8.24951c-1.23431,1.99109-2.90265,3.08618-4.69946,3.08618-1.74738,0-3.60486-.11548-4.13214-.97229a1.57523,1.57523,0,0,1,.147-1.564,13.38369,13.38369,0,0,1,1.21619-1.95826c.20764-.29248.43078-.60668.694-.99987.71014-1.06043,1.515-2.26233,2.12225-3.31214.9079-1.57153,1.80615-3.17761,3.16577-5.60864l.09168-.16382.86078-1.53991a2.85867,2.85867,0,0,1,1.83789-1.53663A2.49594,2.49594,0,0,1,42.502,29.799a4.29976,4.29976,0,0,1,2.32209.8446C46.01166,31.49414,46.24768,33.97656,45.35028,36.17737Zm15.584,3.02661A28.92431,28.92431,0,0,1,41.41833,60.04053l-.29754.08764c-.11786.03577-.24176.06592-.36652.09583l-.27893.07092a6.822,6.822,0,0,1-1.46765.18738,2.12772,2.12772,0,0,1-1.74243-.66455c-1.19989-1.47168.15063-5.01868,1.63-8.29419.155-.34338.41291-.91492.44312-1.03088l.01434-.05494.03-.0559c.51-.88868,1.41052-2.16016,2.364-3.50635,2.1153-2.98316,4.73676-6.68018,5.92438-9.87219.59845-1.61011,1.16364-2.99366,1.72772-4.22962,2.00678-4.413,4.09565-7.17785,6.20838-8.21765l.05591-.0282c.1875-.08435.40313-.17785.64978-.26513a4.56457,4.56457,0,0,1,1.33136-.2782c.0495-.0022.09942-.0033.14947-.0033a2.776,2.776,0,0,1,1.39649.355c1.27893.73108,2.12384,2.66785,2.44342,5.60083.03143.38367.06121.76819.08361,1.16077.02509.4414.03736.839.03736,1.21545a29.109,29.109,0,0,1-.17145,3.00574A28.9061,28.9061,0,0,1,60.93427,39.204Z" style="fill:#b7b7b3"/><path d="M21.19118,74.77209H18.745a.32656.32656,0,0,0-.32662.32652v10.145a3.62528,3.62528,0,0,1-.97881,2.65832,3.49377,3.49377,0,0,1-2.60979.99524,3.25681,3.25681,0,0,1-2.528-.97891,3.80617,3.80617,0,0,1-.8972-2.67465V75.098a.326.326,0,0,0-.326-.32588H8.63247a.32651.32651,0,0,0-.32641.32652V86.2225a4.97771,4.97771,0,0,0,2.98432,4.7625,7.014,7.014,0,0,0,2.95252.61933,4.62919,4.62919,0,0,0,4.01187-1.79377c.04387-.04366.08181-.06.11445-.04938a.07666.07666,0,0,1,.04918.08181,1.53343,1.53343,0,0,0,1.53349,1.53349h1.23866a.32664.32664,0,0,0,.32662-.32662V75.098A.326.326,0,0,0,21.19118,74.77209Z" style="fill:#b7b7b3"/><path d="M37.01187,75.751a7.43279,7.43279,0,0,0-4.27342-1.23993A7.20242,7.20242,0,0,0,28.514,75.751a6.2019,6.2019,0,0,0-2.43048,3.32715,14.31042,14.31042,0,0,0-.48877,3.94712,13.05913,13.05913,0,0,0,.48877,3.947,6.30388,6.30388,0,0,0,2.41437,3.40886,7.11169,7.11169,0,0,0,4.24057,1.25626,7.57442,7.57442,0,0,0,4.27342-1.20687,5.5292,5.5292,0,0,0,2.38131-3.19722,2.06946,2.06946,0,0,0,.163-.71736v-.13057c0-.13046-.08733-.21725-.26092-.26091l-2.4468-.39148c-.17422-.04367-.2855.01113-.32238.19266-.01462.0726-.0691.29685-.0691.29685a3.18706,3.18706,0,0,1-1.28868,1.95665,4.05833,4.05833,0,0,1-2.46248.75053,3.72581,3.72581,0,0,1-2.365-.75053,3.62744,3.62744,0,0,1-1.28868-2.05468,13.03527,13.03527,0,0,1-.29334-3.06677,13.20988,13.20988,0,0,1,.29334-3.09856,3.42232,3.42232,0,0,1,1.27257-1.98982,3.79793,3.79793,0,0,1,2.3811-.75053,3.992,3.992,0,0,1,2.44637.75053,3.18839,3.18839,0,0,1,1.27215,1.85926l.09814.522q.09761.29313.326.29335h.0655l2.44616-.35895a.31826.31826,0,0,0,.294-.32588,4.61115,4.61115,0,0,0-.26091-1.07641A5.67447,5.67447,0,0,0,37.01187,75.751Z" style="fill:#b7b7b3"/><path d="M46.30839,74.51107H43.82916a.32664.32664,0,0,0-.32662.32662V89.1251A2.21889,2.21889,0,0,0,45.72149,91.344h.5869a.29085.29085,0,0,0,.326-.33161V74.84278A.29117.29117,0,0,0,46.30839,74.51107Z" style="fill:#b7b7b3"/><path d="M64.67338,69.951H62.19415a.326.326,0,0,0-.326.32588v5.86562a.10917.10917,0,0,1-.04917.098c-.03264.02194-.07058.01124-.11361-.03306a4.903,4.903,0,0,0-1.71259-1.25551,5.14642,5.14642,0,0,0-2.10407-.44087,6.38283,6.38283,0,0,0-4.01271,1.2075,6.64662,6.64662,0,0,0-2.25075,3.35958,13.24165,13.24165,0,0,0-.52183,3.94712,12.42038,12.42038,0,0,0,.61976,4.1755,6.58476,6.58476,0,0,0,2.26706,3.27851,6.33006,6.33006,0,0,0,3.89847,1.15812,4.95185,4.95185,0,0,0,2.12018-.457,5.12265,5.12265,0,0,0,1.69648-1.27183c.043-.04377.081-.05436.11361-.03306a.10976.10976,0,0,1,.04917.098,1.40308,1.40308,0,0,0,1.40293,1.40292h1.40229A.32664.32664,0,0,0,65,91.04986V70.2775A.32655.32655,0,0,0,64.67338,69.951Zm-3.6206,17.21736a3.11276,3.11276,0,0,1-2.87071,1.76134,3.23947,3.23947,0,0,1-3.0992-1.7944,8.61763,8.61763,0,0,1-.81538-4.04451,7.88856,7.88856,0,0,1,1.04387-4.30607,3.15864,3.15864,0,0,1,2.90314-1.56591,3.01624,3.01624,0,0,1,2.77278,1.66394,8.60523,8.60523,0,0,1,.81539,4.175A8.821,8.821,0,0,1,61.05278,87.16834Z" style="fill:#b7b7b3"/><path d="M.32652,69.951h2.4787a.32662.32662,0,0,1,.32662.32662V91.04986a.32662.32662,0,0,1-.32662.32662H.326a.326.326,0,0,1-.326-.326V70.2775A.32652.32652,0,0,1,.32652,69.951Z" style="fill:#b7b7b3"/></g></g></svg>