<svg xmlns="http://www.w3.org/2000/svg" viewBox="0 0 74.87061 93.57471"><defs><style>.cls-1{fill:#8e4d6f;}.cls-2{fill:#20282b;}</style></defs><title>Asset 17</title><g id="Layer_2" data-name="Layer 2"><g id="Layer_1-2" data-name="Layer 1"><path class="cls-1" d="M62.80664,28.36829A19.20642,19.20642,0,1,0,43.59887,47.57471,19.20629,19.20629,0,0,0,62.80664,28.36829Z"/><path class="cls-2" d="M38.30664,0A32.07477,32.07477,0,1,0,70.38147,32.07471,32.111,32.111,0,0,0,38.30664,0ZM25.095,15.42847c.28278-.71619.481-1.28247.62354-1.78223a7.59724,7.59724,0,0,0,.29431-1.984c.00073-.03808.004-.0791.00757-.12012.002-.02246.00451-.04467.00451-.06518a12.34106,12.34106,0,0,0-.149-1.71485c-.26215-1.89929-.26813-2.96777,2.53448-4.67663l.03247-.01978.0354-.01367a3.33937,3.33937,0,0,1,1.18042-.26513,1.275,1.275,0,0,1,.811.25268c.94946.74878.74591,2.8988.3811,5.63147a20.76542,20.76542,0,0,0-.23767,2.4148c0,3.92651-.20453,6.34423-1.32227,8.66223a1.14937,1.14937,0,0,0,.53974,1.53235,1.09955,1.09955,0,0,0,.4873.11547,1.03917,1.03917,0,0,0,.94483-.62439c1.35895-2.6333,1.43963-5.35669,1.52508-8.24011l.00257-.08337c.01379-.4491.02777-.90088.04669-1.356.28351-6.717,2.06836-9.84546,5.61694-9.84546,3.44147.02368,5.0921.38574,5.56049,1.21143.55816.98218-.494,2.77319-2.08667,5.48413-.44873.76453-.93231,1.58826-1.43848,2.49036a27.897,27.897,0,0,0-2.93384,8.12011,32.94836,32.94836,0,0,1-1.40881,5.00171c-.96088,2.45569-3.57471,5.06189-5.675,7.156l-.20752.20752A3.8057,3.8057,0,0,1,27.557,34.03674a4.018,4.018,0,0,1-1.26368-.20581c-1.50512-.49316-3.21234-1.05249-4.23309-2.8269-2.04968-3.56629.38232-9.28589,2.15814-13.46216C24.53845,16.7865,24.83667,16.08252,25.095,15.42847Zm-6.3139,35.844a2.64852,2.64852,0,0,1-.47748.04285,4.27349,4.27349,0,0,1-3.00067-1.5365c-.24542-.32227-.44672-.62085-.64789-.91968l-.18909-.27966c-.06646-.09754-.13519-.194-.20392-.29041-.11474-.161-.22937-.32226-.33471-.48791-.18225-.28662-.34827-.58045-.5141-.87451l-.17688-.31177c-.06079-.10657-.12347-.21118-.18616-.31592-.105-.17554-.21-.35107-.30517-.53088-.15479-.29273-.293-.59156-.4311-.89075l-.1513-.32556c-.05151-.10974-.10516-.21814-.15881-.32666-.09205-.18616-.1839-.37244-.26575-.56262-.15351-.35743-.287-.72168-.42029-1.08606l-.10571-.2876c-.03852-.10462-.07959-.20752-.12061-.31055-.06415-.16089-.12811-.322-.18323-.486-.13568-.40381-.2489-.81555-.35833-1.21375l-.06806-.24682c-.02722-.09741-.05719-.1947-.08716-.29212-.04858-.1582-.097-.31628-.13647-.47692-.10107-.40552-.17926-.819-.25488-1.21888l-.05054-.26611c-.02008-.10474-.04309-.20862-.066-.3125-.03516-.15906-.07007-.31824-.09644-.47925-.09014-.55371-.14758-1.11706-.20312-1.66174-.01245-.12024-.02393-.20288-.03528-.28552-.01709-.12391-.03387-.24781-.0437-.37317-.06287-.77539-.09485-1.56726-.09485-2.3523a28.93314,28.93314,0,0,1,7.94153-19.90771l.18274-.19019c.26782-.26172.52429-.49524.80786-.73694.05988-.05114.11865-.09887.17737-.1466l.05438-.04419q.276-.22467.53595-.4126l.05615-.04065c.05768-.04175.1153-.08337.17157-.12158.20941-.1427.413-.27014.60791-.37927l.08612-.05042a5.86794,5.86794,0,0,1,.60334-.28393c.05932-.02405.11627-.044.17321-.06373.16791-.05908.29578-.0979.4173-.12817.0802-.0199.14337-.03528.20288-.04651a2.9451,2.9451,0,0,1,.41223-.04712.93107.93107,0,0,1,.10651-.00769h.03412l.07623.00977a2.06061,2.06061,0,0,1,.402.0498,1.64117,1.64117,0,0,1,.44586.18128c.81891.48767,1.0766,1.672.67108,3.09009a35.735,35.735,0,0,1-1.42743,3.67858C20.20282,21.30408,17.5329,27.58838,20.13306,32.113a6.63711,6.63711,0,0,0,1.65155,1.917,11.62932,11.62932,0,0,0,3.12469,1.63782c.23688.0924.465.18164.68079.272a1.15436,1.15436,0,0,1,.67376.66968c.31812.855-.23278,2.16882-.87554,3.4613l-.06214.12427c-1.33594,2.70129-2.84228,5.74707-3.926,8.45508A3.763,3.763,0,0,1,18.78113,51.27246Zm23.37372,1.1698-.22589.62524C40.15973,57.9668,39.0918,60.924,34.7984,60.924a18.98964,18.98964,0,0,1-4.97363-.85632c-.86536-.271-1.7431-.59034-2.55005-.92725l-.02368-.00976-.02228-.0127c-2.87549-1.63037-4.62988-2.90979-5.08826-4.624-.34723-1.296.07074-2.88391,1.31537-4.99707a44.58183,44.58183,0,0,0,2.34851-4.938c.45862-1.07434.97858-2.29248,1.51856-3.38477a41.03191,41.03191,0,0,1,4.71972-6.88928c2.24811-2.24207,5.04511-5.03162,6.17408-7.92078a34.72423,34.72423,0,0,0,1.50836-5.32617,24.72567,24.72567,0,0,1,2.674-7.46863c2.473-4.34472,4.71606-6.57092,7.059-7.006a4.79677,4.79677,0,0,1,.87817-.08081c1.62164,0,3.33313.78272,5.38623,2.46326a35.19513,35.19513,0,0,1,6.41077,6.51111c1.41547,2.2362,1.43378,4.23266.06366,5.49707a4.35586,4.35586,0,0,1-2.93921,1.042,5.68057,5.68057,0,0,1-3.4375-1.18225,6.66249,6.66249,0,0,0-3.79736-1.43018,4.47692,4.47692,0,0,0-1.1731.15564c-1.90655.51721-3.50964,2.29993-4.76483,5.29871a135.62943,135.62943,0,0,1-6.19861,12.757c-.54.934-1.27032,2.0271-2.04352,3.18444-2.52612,3.77576-3.92248,5.98682-3.27136,7.55921a1.79288,1.79288,0,0,0,.2309.40234,1.986,1.986,0,0,0,1.22369.73181,20.71494,20.71494,0,0,0,3.61237.21021l.5274.00561a2.155,2.155,0,0,1,1.74207.92933A1.98436,1.98436,0,0,1,42.15485,52.44226ZM48.52576,25.533a3.90982,3.90982,0,1,1,3.90954,3.90979A3.91406,3.91406,0,0,1,48.52576,25.533Zm2.63116,10.64441a69.30377,69.30377,0,0,1-4.69452,8.24951c-1.23431,1.99109-2.90265,3.08618-4.69946,3.08618-1.74738,0-3.60486-.11548-4.13214-.97229a1.57523,1.57523,0,0,1,.147-1.564A13.38369,13.38369,0,0,1,38.994,43.01855c.20764-.29248.43078-.60668.694-.99987.71014-1.06043,1.515-2.26233,2.12225-3.31214.9079-1.57153,1.80615-3.17761,3.16577-5.60864l.09168-.16382.86078-1.53991a2.85867,2.85867,0,0,1,1.83789-1.53663,2.49594,2.49594,0,0,1,.54229-.05859,4.29973,4.29973,0,0,1,2.32209.8446C51.8183,31.49414,52.05432,33.97656,51.15692,36.17737Zm15.584,3.02661A28.92432,28.92432,0,0,1,47.225,60.04053l-.29755.08764c-.11786.03577-.24176.06592-.36652.09583l-.27893.07092a6.822,6.822,0,0,1-1.46765.18738,2.12772,2.12772,0,0,1-1.74243-.66455c-1.19989-1.47168.15063-5.01868,1.63-8.29419.155-.34338.41291-.91492.44312-1.03088l.01434-.05494.03-.0559c.51-.88868,1.41052-2.16016,2.364-3.50635,2.1153-2.98316,4.73676-6.68018,5.92438-9.87219.59845-1.61011,1.16364-2.99366,1.72772-4.22962,2.00678-4.413,4.09565-7.17785,6.20838-8.21765l.05591-.0282c.1875-.08435.40313-.17785.64978-.26513a4.56457,4.56457,0,0,1,1.33136-.2782c.0495-.0022.09942-.0033.14947-.0033a2.776,2.776,0,0,1,1.39649.355c1.27893.73108,2.12384,2.66785,2.44342,5.60083.03143.38367.06121.76819.08361,1.16077.02509.4414.03736.839.03736,1.21545a29.109,29.109,0,0,1-.17145,3.00574A28.90451,28.90451,0,0,1,66.74091,39.204Z"/><path class="cls-2" d="M24.40918,74.14832H21.59155a.37614.37614,0,0,0-.37622.37609V86.21a4.17581,4.17581,0,0,1-1.12744,3.062,4.02434,4.02434,0,0,1-3.0061,1.14636,3.75134,3.75134,0,0,1-2.91187-1.12756A4.38412,4.38412,0,0,1,13.13647,86.21V74.52368a.37551.37551,0,0,0-.37548-.37536H9.94336a.37608.37608,0,0,0-.376.37609V87.33752a5.73362,5.73362,0,0,0,3.4375,5.48572,8.07925,8.07925,0,0,0,3.40088.71338,5.33217,5.33217,0,0,0,4.6211-2.06616c.05053-.05029.09423-.06909.13183-.05689a.08832.08832,0,0,1,.05664.09424,1.76629,1.76629,0,0,0,1.76636,1.76636h1.42676a.37625.37625,0,0,0,.37622-.37622V74.52368A.37551.37551,0,0,0,24.40918,74.14832Z"/><path class="cls-2" d="M42.63232,75.27588A8.56137,8.56137,0,0,0,37.71,73.84766a8.29608,8.29608,0,0,0-4.866,1.42822,7.14368,7.14368,0,0,0-2.79956,3.8324,16.484,16.484,0,0,0-.563,4.54651,15.0427,15.0427,0,0,0,.563,4.54638,7.26128,7.26128,0,0,0,2.781,3.92652,8.19168,8.19168,0,0,0,4.88452,1.447,8.72459,8.72459,0,0,0,4.92236-1.39014,6.36871,6.36871,0,0,0,2.74292-3.68274,2.38353,2.38353,0,0,0,.18775-.82629v-.15039c0-.15027-.10059-.25025-.30054-.30054l-2.81836-.45093c-.20068-.05029-.32886.01282-.37134.22193-.01684.08361-.07959.34191-.07959.34191a3.67105,3.67105,0,0,1-1.48437,2.25379,4.67464,4.67464,0,0,1-2.83643.8645,4.29156,4.29156,0,0,1-2.72412-.8645,4.17823,4.17823,0,0,1-1.48437-2.3667,15.01408,15.01408,0,0,1-.33789-3.53247,15.21515,15.21515,0,0,1,.33789-3.56909,3.942,3.942,0,0,1,1.46582-2.292,4.37462,4.37462,0,0,1,2.74267-.8645,4.59827,4.59827,0,0,1,2.81787.8645,3.67262,3.67262,0,0,1,1.46534,2.14161l.113.60131q.11242.33765.37549.3379h.07544l2.81763-.41346a.36659.36659,0,0,0,.33862-.37536,5.31088,5.31088,0,0,0-.30054-1.23987A6.536,6.536,0,0,0,42.63232,75.27588Z"/><path class="cls-2" d="M53.34058,73.84766H50.48486a.37624.37624,0,0,0-.37622.37622v16.457a2.55584,2.55584,0,0,0,2.55591,2.55578h.676a.335.335,0,0,0,.37548-.38195v-18.625A.33538.33538,0,0,0,53.34058,73.84766Z"/><path class="cls-2" d="M74.49438,68.59509H71.63867a.37552.37552,0,0,0-.37549.37537v6.75635a.12575.12575,0,0,1-.05664.11291c-.03759.02527-.0813.01294-.13086-.03808A5.64782,5.64782,0,0,0,69.103,74.35547a5.92793,5.92793,0,0,0-2.42359-.50781,7.3521,7.3521,0,0,0-4.62207,1.39087,7.656,7.656,0,0,0-2.59253,3.86975,15.25252,15.25252,0,0,0-.60107,4.54651,14.30633,14.30633,0,0,0,.71387,4.80957A7.58471,7.58471,0,0,0,62.189,92.24072a7.29127,7.29127,0,0,0,4.49048,1.334,5.70382,5.70382,0,0,0,2.44214-.52637,5.90054,5.90054,0,0,0,1.9541-1.465c.04956-.05041.09327-.06262.13086-.03808a.12643.12643,0,0,1,.05664.11291,1.61615,1.61615,0,0,0,1.616,1.616h1.61523a.37625.37625,0,0,0,.37623-.37622V68.97119A.37615.37615,0,0,0,74.49438,68.59509ZM70.324,88.427a3.58542,3.58542,0,0,1-3.30664,2.02881,3.73139,3.73139,0,0,1-3.56982-2.06689,9.92623,9.92623,0,0,1-.93921-4.6587,9.08655,9.08655,0,0,1,1.20239-4.96,3.63831,3.63831,0,0,1,3.344-1.80371,3.47428,3.47428,0,0,1,3.19385,1.91663,9.912,9.912,0,0,1,.9392,4.809A10.16039,10.16039,0,0,1,70.324,88.427Z"/><path class="cls-2" d="M.3761,68.59509H3.2312a.37622.37622,0,0,1,.37622.37622V92.89795a.37622.37622,0,0,1-.37622.37622H.37622A.37622.37622,0,0,1,0,92.89795V68.97119a.3761.3761,0,0,1,.3761-.3761Z"/></g></g></svg>