<svg xmlns="http://www.w3.org/2000/svg" viewBox="0 0 510.76975 254.38409"><title>lucid-garden</title><g id="d71a9176-58f2-4ca3-87f7-3f3e0aff1f75" data-name="Layer 2"><g id="6b25b9bd-0289-4976-888c-f959cb9aa4f2" data-name="Layer 1"><path d="M295.51888,31.86407c0-6.25772.12725-12.559-.05919-18.851-.0806-2.71873-1.84485-3.86187-4.58242-3.063-1.15287.3363-2.29263.71758-3.43834,1.07846l-.53734-1.11372c6.0456-2.93862,12.09114-5.87729,18.8542-9.1647.14977,2.155.34965,3.70037.35081,5.24585.01934,25.85851-.09027,51.71777.09929,77.57492.03929,5.36035,1.16913,10.7128,1.8248,16.31152-5.14123,1.78148-11.65.72367-13.73706-2.71683-10.60781,5.71544-21.50644,5.27522-32.21835.78529-10.6889-4.48032-16.55327-13.07968-17.59455-24.50542-2.1746-23.86168,12.357-40.33258,36.37532-41.5476C285.5023,31.66282,290.17057,31.86407,295.51888,31.86407Zm.03612,34.198c0-6.87444.06685-13.75015-.05592-20.62238a6.71189,6.71189,0,0,0-1.24081-4.086c-8.22648-9.18092-28.11459-7.98539-34.74331,2.46334-7.5352,11.87765-6.46878,24.50023-.62068,36.63055,5.1145,10.60877,13.74269,16.62515,25.97074,16.33217,6.8745-.16467,10.61734-4.04161,10.67446-10.91933C295.59424,79.26136,295.55132,72.66155,295.555,66.06205Z" style="fill:#b7b7b3"/><path d="M76.42619,37.37489c3.27084-1.56578,7.44652-3.56467,12.32446-5.89976.12743,1.88867.301,3.28439.30338,4.68045.02154,12.64288.00585,25.28581.02076,37.92869.00244,2.06015-.00439,4.12936.17328,6.17878.98882,11.40524,10.642,17.69907,21.21788,13.26157,5.121-2.14876,9.70214-5.64542,14.36154-8.77889.88023-.592,1.3643-2.34642,1.37445-3.57.099-11.95491.19027-23.91376-.05334-35.8646-.04879-2.39327-1.52467-4.75748-2.53034-7.681,3.7504-1.79346,7.99212-3.82183,12.85835-6.14885.11669,2.0403.2692,3.48119.27079,4.92225.01725,15.66622-.09768,31.33371.09478,46.99762.04284,3.48634,1.1448,6.95968,1.91678,11.33194-3.10672,1.44488-7.3694,3.42735-12.38358,5.75932V86.87378c-3.26114,2.16236-5.44435,3.9789-7.92542,5.18032-5.63363,2.72781-11.1909,6.14916-17.18171,7.48976-11.75209,2.62973-20.7939-3.835-21.83785-15.79881-1.05985-12.14553-.58575-24.41957-1.02428-36.62868C78.30023,44.16833,77.24525,41.25434,76.42619,37.37489Z" style="fill:#b7b7b3"/><path d="M66.3265,102.12513c-4.48919-.68453-8.36991-1.74355-12.26241-1.78868-16.4893-.191-32.98209-.0808-49.4736-.08065H.199l-.1905-.8079C.617,99.12924,1.208,98.76977,1.837,98.4985c4.16519-1.79619,5.86693-5.00829,5.85694-9.47289Q7.616,54.18744,7.7078,19.34914C7.73,13.7413,4.88592,10.5222,0,8.275H27.169c-7.90391,2.65048-7.621,8.97227-7.58079,15.50488.1414,22.94976.05492,45.901.05493,68.8517v4.47069c9.61657,0,18.82715.72877,27.86606-.20461,9.05794-.9354,15.754-6.6595,20.71224-14.25818a7.4293,7.4293,0,0,1,2.71836-2.71737C69.32441,87.69664,67.709,95.47122,66.3265,102.12513Z" style="fill:#b7b7b3"/><path d="M211.62247,87.90051c-1.31753,1.48049-2.54427,3.055-3.9666,4.42687-14.72,14.19823-51.36637,13.36736-59.23781-16.835-5.5012-21.10788,7.80427-40.86544,29.47561-43.48786,11.88049-1.43767,23.32384-.10674,34.03772,7.92258-3.4143,3.12374-6.56316,6.00464-9.94381,9.09765-1.05839-1.2662-1.82654-2.19444-2.60449-3.11442A30.41643,30.41643,0,0,0,183.36094,35.5856c-11.4619-2.875-20.56633,2.36965-23.05327,13.85886a44.91672,44.91672,0,0,0,8.81888,38.5097c9.24711,11.84132,24.12436,12.70735,36.57133,2.75767,1.63255-1.305,3.21819-2.66866,4.82558-4.00514Z" style="fill:#b7b7b3"/><path d="M93.41122,199.203c4.89444-6.31574,9.78889-12.63144,14.87369-19.19276-1.52381-1.16757-2.8012-2.133-4.06458-3.11644-15.69458-12.21717-13.4875-33.24712,4.36925-42.13995a36.58088,36.58088,0,0,1,31.87977-.95862c2.3232.97972,3.57444.72594,5.2333-1.15528a132.0327,132.0327,0,0,1,10.64726-10.90714c9.19579-8.2696,17.44222-8.36516,27.77323-.27383l-9.1036,8.29494c-1.91023-1.79085-3.65962-3.44941-5.42921-5.08617-4.06448-3.75931-7.99366-4.06221-12.14483-.5466-4.18256,3.5423-8.12443,7.36881-12.49715,11.36841,1.93447,1.75579,3.02985,2.73219,4.10584,3.72949,11.98892,11.11141,11.26545,27.5544-1.8246,37.40716-10.11606,7.61429-21.45506,8.69658-33.29306,5.10617-2.59477-.7871-3.97925-.41957-5.50815,1.66073-3.15765,4.2965-6.52379,8.43992-10.38028,13.385a31.61966,31.61966,0,0,0,3.73932-.41337c10.37791-2.67436,20.72192-5.48614,31.13569-8.01083a13.30153,13.30153,0,0,1,6.75808.14744,54.48482,54.48482,0,0,1,10.96925,4.61079c15.43129,8.858,19.30979,25.79287,9.49319,40.71114-8.71163,13.239-21.516,19.05932-36.85778,20.34155-21.531,1.79946-37.46262-7.56437-49.25861-24.8671-5.0296-7.37758-9.58049-15.08249-14.317-22.6586-3.35834-5.37174-3.92766-5.88167-9.48095-8.54807,5.75151,0,11.50931-.13264,17.24807.13812.89646.04232,1.81317,1.85115,2.53976,2.96144,7.14647,10.92059,13.90727,22.11673,21.53032,32.69195a50.68046,50.68046,0,0,0,13.06275,12.35353c16.16594,10.63416,38.09194,6.38607,47.48978-8.65471,7.09241-11.35089,5.254-24.43146-4.91011-33.11817-10.38884-8.87872-22.14071-12.40793-35.65314-8.42893-4.47921,1.31889-9.02511,2.415-13.55465,3.557-1.24474.31378-2.54046.42495-3.81281.62907Zm19.96722-26.95c.57814-.20386.93111-.21565,1.07432-.395,7.45748-9.33688,14.91717-18.67215,22.28815-28.077a2.66012,2.66012,0,0,0,.12669-2.4971c-3.93391-5.09976-8.78866-8.8282-15.59268-8.59547-6.41181.21938-10.38058,4.16336-12.58177,9.75388C104.43493,153.2569,107.02184,163.07732,113.37844,172.253Zm25.37038-27.24561q-11.61283,14.72739-23.08391,29.27508c6.37549,8.686,17.54644,9.37617,23.85357,1.82032C146.68994,167.51139,144.3348,150.9006,138.74882,145.00734Z" style="fill:#b7b7b3"/><path d="M352.30177,99.64421c0,2.69657.00006,4.31766.00006,5.93879,0,25.16642-.10891,50.33365.08054,75.49866.04438,5.90273,1.09765,11.7979,1.70919,17.92117-5.80752,1.66859-11.59988.70589-13.48437-2.85656-10.06282,5.54386-20.566,5.3267-30.96337,1.41747-11.67015-4.38768-18.0404-13.31376-19.02043-25.62381-1.88565-23.68517,12.64016-39.85655,36.531-41.00725,4.64554-.22371,9.31108-.03208,14.49211-.03208,0-6.27837.17439-12.83536-.19188-19.362-.05365-.95661-2.58852-2.14448-4.14548-2.52047-1.10193-.26608-2.4909.65668-3.75176,1.04874q-.2588-.58115-.51764-1.16228C339.13067,105.97632,345.22165,103.048,352.30177,99.64421Zm-10.55729,65.3581c0-6.8751.07083-13.75151-.05959-20.62414a6.569,6.569,0,0,0-1.31758-4.05053c-8.44582-9.14016-27.7632-7.65952-34.81789,2.55613-9.59766,13.8982-4.68131,38.763,9.59349,48.48316a25.8209,25.8209,0,0,0,16.41141,4.44208c6.36849-.35755,10.10261-4.21913,10.16865-10.59411C341.79269,178.478,341.73854,171.73989,341.74448,165.00231Z" style="fill:#b7b7b3"/><path d="M216.30455,171.32138c-2.24074,3.88661-4.04191,8.12791-6.82513,11.57671-4.18472,5.18556-8.38375,10.80131-13.77257,14.48461-12.50646,8.54822-30.7802-.41962-32.75234-15.42554-1.2111-9.215,5.79694-19.25014,16.64983-22.18775,7.2329-1.95779,14.8884-2.31459,22.31771-3.60185,4.31222-.74725,8.57971-1.81392,12.80116-2.97721a3.79185,3.79185,0,0,0,2.33871-2.34455c1.16067-6.10841-3.67912-13.54891-9.88873-13.85025a63.27946,63.27946,0,0,0-31.27628,7.07353c-2.715,1.27068-4.4705.96728-6.43383-1.16818-2.10336-2.28774-4.51875-4.28864-7.35607-6.93535,17.99452-5.11684,35.0818-9.16172,52.02919.9687,8.6871,5.1927,13.80621,12.20185,13.43269,22.81183-.31907,9.0631-.03305,18.14655-.08055,27.22068-.015,2.8618.344,5.34549,4.13092,6.48288-4.51074,2.40229-9.02148,4.80453-14.21288,7.56931V171.5187Zm.82946-15.1515c-3.80274.78417-6.99,1.61167-10.22956,2.06161-3.25154.45155-6.56706.42369-9.83291.79586a58.12952,58.12952,0,0,0-9.72446,1.561c-4.6329,1.35435-9.16274,3.24021-11.39219,8.04972-2.7071,5.83986-.05592,15.2253,5.45022,19.79136,4.86185,4.03168,11.66335,4.30018,17.52608-.02942,9.93548-7.33733,15.07474-17.82662,18.177-29.46927A12.4378,12.4378,0,0,0,217.134,156.16988Z" style="fill:#b7b7b3"/><path d="M510.76975,198.95245h-25.449c8.11475-2.83258,7.54331-9.50764,7.474-16.05486-.09772-9.21.0392-18.42229-.04543-27.63253-.15959-17.37245-11.96283-24.228-27.14718-15.82511-10.02564,5.5481-10.02574,5.54815-10.02564,17.0018,0,10.03582.19686,20.077-.075,30.10544-.15767,5.81916,1.67927,9.8991,7.441,12.25077H437.49547c7.45294-2.387,7.6635-8.24145,7.5291-14.61366-.24653-11.68094-.10357-23.36988-.16593-35.0552a26.71,26.71,0,0,0-.42012-5.32524c-1.02763-4.886-3.56033-6.32-8.35423-4.975-.73788.20708-1.51283.282-2.27066.418q-.22518-.519-.45045-1.03786c4.94935-2.3844,9.86647-4.8422,14.89128-7.05534.5925-.261,2.16286.582,2.61794,1.32091,1.83694,2.98245,3.41425,6.12463,5.34579,9.684a45.65011,45.65011,0,0,1,4.41156-2.55774c6.21454-2.82251,12.24583-6.47075,18.77249-8.09244,12.098-3.00592,21.01565,3.16591,22.91888,15.51007,1.05937,6.87086.76135,13.96157.92457,20.95671.12835,5.49606.19635,11.00426-.01915,16.49488C502.98032,190.74788,503.54189,196.40212,510.76975,198.95245Z" style="fill:#b7b7b3"/><path d="M430.59322,150.61352c-5.49914,2.64227-11.03162,5.3265-16.58636,7.96409-11.17438,5.306-22.3216,10.67234-33.56992,15.81725-2.80055,1.28091-3.322,2.5795-1.94625,5.30745,4.97877,9.87211,11.77417,17.31865,23.63248,18.00641,7.28086.42228,13.1654-2.64852,16.187-9.18873,2.24447-4.85807,5.2652-5.60386,9.7232-4.40859-4.34527,11.77438-21.66915,17.44917-34.50668,15.85045-18.12926-2.25766-30.1071-15.18843-30.695-33.47255-.57623-17.92192,10.601-31.87785,28.24342-35.2648C407.823,128.00928,425.7699,136.682,430.59322,150.61352Zm-54.187,23.38071c14.60021-6.94134,28.53836-13.568,42.38009-20.14871-2.501-9.26792-10.37061-17.40731-18.78927-19.83755-8.455-2.44067-16.72031.19575-20.97893,7.20213C372.8296,151.39165,373.02621,162.21809,376.40626,173.99423Z" style="fill:#b7b7b3"/><path d="M262.75561,199.00776H237.29672c.23958-.49447.32466-1.01387.54948-1.08374,5.1242-1.59212,6.97595-5.2247,6.93646-10.3693-.09818-12.78634.03571-25.5744-.059-38.36084-.07269-9.80385-1.81251-11.31628-11.42534-10.75174,1.40312-.77858,2.78327-1.60285,4.215-2.32471,1.96222-.98939,3.96953-1.88892,5.94736-2.848,6.13833-2.97635,8.13707-2.22194,10.41232,4.3096a80.75546,80.75546,0,0,1,1.89945,8.13647c1.9528-1.86414,3.62144-3.57374,5.4141-5.14163,2.88976-2.52746,5.6227-5.34358,8.847-7.357,7.13987-4.45865,15.65112-3.06233,22.78151,3.70819-1.5088,1.32841-3.02108,2.65093-4.52323,3.98489-1.42675,1.267-2.843,2.5457-5.283,4.73259a59.65336,59.65336,0,0,0-4.7342-5.80893c-3.73826-3.587-7.9787-3.94379-11.85115-.68111a95.19434,95.19434,0,0,0-9.9054,9.88157c-.933,1.05725-1.13438,3.02849-1.14778,4.5856-.09364,10.86135.10312,21.72688-.111,32.58481C255.14314,192.08793,256.81767,196.46458,262.75561,199.00776Z" style="fill:#b7b7b3"/><path d="M234.71235,31.16679c0,2.692,0,4.30754,0,5.92308q.00012,24.12476.00061,48.24947c.00108,9.42247.08369,9.57852,7.85613,14.5788H215.93668c1.38166-.81046,1.94728-1.20368,2.56192-1.49268,3.91349-1.84032,5.63326-4.90084,5.6119-9.22565-.072-14.5707,0-29.142-.03851-43.71294-.0135-5.10813-1.36055-5.9531-6.37086-4.26552-.60353.20326-1.24273.30063-1.86537.44712q-.25-.58092-.50012-1.16178C221.43085,37.56868,227.52609,34.63066,234.71235,31.16679Z" style="fill:#b7b7b3"/><path d="M221.51125,8.11324,229.5521,0c2.41539,3.0836,4.82919,6.16513,7.39272,9.43788-1.87134,1.91008-4.51334,4.60681-7.2327,7.38252C226.89233,13.82652,224.30882,11.0835,221.51125,8.11324Z" style="fill:#b7b7b3"/></g></g></svg>