<svg xmlns="http://www.w3.org/2000/svg" viewBox="0 0 614.16584 556.09575"><title>our-story</title><g id="4faa0d8b-85ca-4e85-82a4-ae6a42adf36d" data-name="Layer 2"><g id="cd631f59-f03a-489f-b97d-c6bcfeac6904" data-name="Layer 1"><circle cx="590.95161" cy="54.36745" r="23.21423" style="fill:#8b4d6f"/><path d="M555.12235,284.49c0,41.61843-21.11795,83.849-37.20224,119.46474-25.09151,55.56061-55.3735,98.89869-108.26469,128.50819-40.97708,22.93976-90.6072,22.90248-140.90721,22.90248-43.74955,0-82.80409,3.22148-119.81748-14.44919A285.2292,285.2292,0,0,1,27.97206,431.279C2.05768,388.443.501,350.3741.501,296.65587c0-49.98214-.44576-109.11429,22.225-149.911,29.33047-52.781,71.03643-84.69255,126.20514-109.99075C184.931,20.246,228.93625.50031,271.13263.50031c59.89736,0,111.564,27.24664,157.37172,58.90577C469.089,87.4554,505.91319,117.09679,527.403,161.96213A282.87266,282.87266,0,0,1,555.12235,284.49Z" style="fill:none;stroke:#edc4a4;stroke-miterlimit:10;stroke-width:1.00062992125984px;opacity:0.7000000000000001"/></g></g></svg>