<svg xmlns="http://www.w3.org/2000/svg" viewBox="0 0 1464.43685 1352.28452"><title>our-mission</title><g id="7c72ae98-bf5b-4241-9fd6-9cc4c8e06eba" data-name="Layer 2"><g id="a29164d4-36cd-482c-afbf-45ee620adc5a" data-name="Layer 1"><g style="opacity:0.7000000000000001"><path d="M.50033,671.85553c.97654-2.13132,1.99655-4.24388,2.9225-6.397,5.833-13.56281,20.10744-21.33326,34.21542-18.60255,15.27163,2.95592,25.86356,15.4757,25.85672,30.563-.00679,15.0075-10.33854,28.02875-24.591,30.99222A31.28678,31.28678,0,0,1,3.716,690.30958c-1.04586-2.35192-2.14248-4.68125-3.21564-7.02095Q.50032,677.572.50033,671.85553Z" style="fill:none;stroke:#edc4a4;stroke-miterlimit:10;stroke-width:1.00062992125984px"/><path d="M1463.93654,680.43035c-1.01464,2.09591-2.108,4.15762-3.03116,6.293-6.02063,13.92833-20.34776,21.598-34.84307,18.61158a31.44506,31.44506,0,0,1-.614-61.45878,31.66678,31.66678,0,0,1,35.2498,18.11913c1.06052,2.34259,2.158,4.66843,3.23842,7.00194Z" style="fill:none;stroke:#edc4a4;stroke-miterlimit:10;stroke-width:1.00062992125984px"/><path d="M616.82225,779.4082c54.08408.06717,97.95415,44.21716,97.83386,98.458a98.22239,98.22239,0,0,1-196.44348-.68264C518.29471,823.25316,562.58173,779.34078,616.82225,779.4082Z" style="fill:none;stroke:#edc4a4;stroke-miterlimit:10;stroke-width:1.00062992125984px"/><path d="M598.08236,676.41972c.17184,55.27246-43.05052,98.02837-99.18658,98.11639-52.8222.08269-96.61809-43.87566-96.74793-97.107-.13433-55.06961,43.0282-98.62745,97.94089-98.838C554.70151,578.38179,597.9117,621.51919,598.08236,676.41972Z" style="fill:none;stroke:#edc4a4;stroke-miterlimit:10;stroke-width:1.00062992125984px"/><path d="M713.627,474.911a97.938,97.938,0,1,1-195.87554.13524c.07929-54.16977,44.11619-98.44715,97.948-98.483C669.79208,376.52714,713.54662,420.46944,713.627,474.911Z" style="fill:#edc4a4"/><path d="M848.98923,975.05586A97.76649,97.76649,0,0,1,750.7215,877.183c-.03865-54.02659,43.53572-97.89125,97.39972-98.04844a97.96185,97.96185,0,1,1,.868,195.92129Z" style="fill:none;stroke:#edc4a4;stroke-miterlimit:10;stroke-width:1.00062992125984px"/><path d="M866.5805,675.04047a97.35409,97.35409,0,0,1,98.61289-97.37216c54.392.37211,97.25328,43.76841,96.95644,98.16663-.30006,54.99622-44.13751,97.67162-100.11216,97.45852C909.3666,773.09284,866.31629,728.78174,866.5805,675.04047Z" style="fill:none;stroke:#edc4a4;stroke-miterlimit:10;stroke-width:1.00062992125984px"/><path d="M945.47847,474.742c-.131,54.0993-43.69989,97.82436-97.5317,97.88132a98.239,98.239,0,0,1-98.17483-98.13428c.04727-53.92209,44.4387-98.01324,98.50333-97.83695A97.62677,97.62677,0,0,1,945.47847,474.742Z" style="fill:none;stroke:#edc4a4;stroke-miterlimit:10;stroke-width:1.00062992125984px"/><path d="M788.22605,278.69974c-.39122,32.48495-25.79643,57.37246-58.11264,56.92843-31.96259-.43914-56.69-26.315-56.27833-58.89208.39039-30.894,26.16954-56.122,57.11157-55.89045C763.396,221.08848,788.61316,246.55864,788.22605,278.69974Z" style="fill:none;stroke:#edc4a4;stroke-miterlimit:10;stroke-width:1.00062992125984px"/><path d="M671.89684,1073.73976c.317-32.48443,25.6747-57.4665,57.94477-57.08663a57.37117,57.37117,0,1,1-57.94477,57.08663Z" style="fill:none;stroke:#edc4a4;stroke-miterlimit:10;stroke-width:1.00062992125984px"/><path d="M387.46553,420.66444A57.46364,57.46364,0,0,1,444.62412,478.113c-.09744,31.594-25.88361,57.49005-57.21236,57.45612-31.714-.03437-57.90672-26.35015-57.64423-57.91494A57.61527,57.61527,0,0,1,387.46553,420.66444Z" style="fill:none;stroke:#edc4a4;stroke-miterlimit:10;stroke-width:1.00062992125984px"/><path d="M1077.24151,931.61085c-31.647-.07475-57.4132-25.72228-57.43893-57.1742-.02582-31.618,25.635-57.63494,56.94488-57.73472,31.74334-.10119,57.97137,26.0076,57.9097,57.64636C1134.59575,905.82568,1108.66726,931.68508,1077.24151,931.61085Z" style="fill:none;stroke:#edc4a4;stroke-miterlimit:10;stroke-width:1.00062992125984px"/><path d="M388.50467,933.25622c-31.67114.042-57.50608-25.44019-57.63271-56.8457-.1287-31.918,25.80395-58.04246,57.42716-57.85213,31.52711.18972,57.4269,26.02584,57.43466,57.29344C445.74155,907.22725,419.83351,933.2147,388.50467,933.25622Z" style="fill:none;stroke:#edc4a4;stroke-miterlimit:10;stroke-width:1.00062992125984px"/><path d="M1076.07319,419.12823c31.70069.00615,57.42532,25.48193,57.486,56.92983.06141,31.864-25.9701,57.92143-57.58845,57.64588-31.49675-.2745-57.48289-26.32014-57.28559-57.41665A57.56583,57.56583,0,0,1,1076.07319,419.12823Z" style="fill:none;stroke:#edc4a4;stroke-miterlimit:10;stroke-width:1.00062992125984px"/><path d="M942.65858,1122.64923a49.051,49.051,0,0,1,48.52175-48.83673c27.08129-.10624,49.43144,21.97037,49.3634,48.75927-.06847,26.98961-22.36289,49.1306-49.25707,48.9182C964.65284,1171.27949,942.65945,1149.19,942.65858,1122.64923Z" style="fill:none;stroke:#edc4a4;stroke-miterlimit:10;stroke-width:1.00062992125984px"/><path d="M216.24627,628.93707a48.38584,48.38584,0,0,1,48.36454,48.77466c-.13582,27.39086-21.85006,48.64988-49.41766,48.3814a48.5809,48.5809,0,0,1,1.05312-97.15606Z" style="fill:none;stroke:#edc4a4;stroke-miterlimit:10;stroke-width:1.00062992125984px"/><path d="M523.68756,1123.7906a48.58973,48.58973,0,0,1-49.40174,48.58856c-27.08849-.24668-48.12949-21.76093-47.99834-49.07782.12993-27.06733,21.63929-48.25962,48.9-48.17911A48.346,48.346,0,0,1,523.68756,1123.7906Z" style="fill:none;stroke:#edc4a4;stroke-miterlimit:10;stroke-width:1.00062992125984px"/><path d="M1038.1427,228.95765c-.152,27.11032-21.60243,48.25756-48.88313,48.1921a48.63552,48.63552,0,1,1,.86574-97.26512C1017.24969,180.168,1038.29561,201.67659,1038.1427,228.95765Z" style="fill:none;stroke:#edc4a4;stroke-miterlimit:10;stroke-width:1.00062992125984px"/><path d="M1199.82062,675.04065a48.70364,48.70364,0,0,1,97.40619-.19975c.13563,26.91067-22.52609,49.63093-49.05837,49.18511A48.71426,48.71426,0,0,1,1199.82062,675.04065Z" style="fill:none;stroke:#edc4a4;stroke-miterlimit:10;stroke-width:1.00062992125984px"/><path d="M424.83309,229.71933a48.50359,48.50359,0,1,1,48.47739,48.62934A48.17738,48.17738,0,0,1,424.83309,229.71933Z" style="fill:#8b4d6f"/><path d="M182.74712,955.10761a40.00387,40.00387,0,1,1-40.21325,39.851A40.23347,40.23347,0,0,1,182.74712,955.10761Z" style="fill:none;stroke:#edc4a4;stroke-miterlimit:10;stroke-width:1.00062992125984px"/><path d="M1281.18111,317.45858c22.38025-.08326,40.06329,17.20494,40.281,39.38151a39.62276,39.62276,0,0,1-39.36014,40.33134c-22.51109.14837-40.79975-17.70563-40.77009-39.80095A39.82126,39.82126,0,0,1,1281.18111,317.45858Z" style="fill:none;stroke:#edc4a4;stroke-miterlimit:10;stroke-width:1.00062992125984px"/><path d="M690.68845,40.11553C690.74136,18.26873,708.90964.37238,730.90487.501c21.831.12768,39.936,18.38252,39.79794,40.12724-.13887,21.88031-18.15468,40.00075-39.92617,40.15812C708.9414,80.94418,690.63459,62.37127,690.68845,40.11553Z" style="fill:none;stroke:#edc4a4;stroke-miterlimit:10;stroke-width:1.00062992125984px"/><path d="M181.17544,399.27824a39.85556,39.85556,0,0,1-40.192-39.76078c-.07724-21.77049,18.09948-39.96935,40.08108-40.13a39.96565,39.96565,0,0,1,40.03323,39.98479C221.20393,381.60527,203.58442,399.21753,181.17544,399.27824Z" style="fill:none;stroke:#edc4a4;stroke-miterlimit:10;stroke-width:1.00062992125984px"/><path d="M1283.57987,952.9974a39.81143,39.81143,0,0,1,39.86179,40.08125c-.09473,21.78754-18.47314,39.90488-40.38943,39.81574a40.02134,40.02134,0,0,1-39.73339-40.30726A39.597,39.597,0,0,1,1283.57987,952.9974Z" style="fill:none;stroke:#edc4a4;stroke-miterlimit:10;stroke-width:1.00062992125984px"/><path d="M769.45179,1311.797A40.04883,40.04883,0,0,1,729.6013,1351.784c-21.81855.07065-40.174-18.09467-40.17712-39.761-.00319-22.24007,18.25215-40.58612,40.27446-40.47447C751.41548,1271.65865,769.31711,1289.78323,769.45179,1311.797Z" style="fill:none;stroke:#edc4a4;stroke-miterlimit:10;stroke-width:1.00062992125984px"/><path d="M1080.23612,37.777c17.024-.117,31.566,14.16028,31.75661,31.17851a31.61477,31.61477,0,0,1-31.10074,31.66526c-17.60061.22918-31.39635-13.78069-31.38327-31.87034A30.703,30.703,0,0,1,1080.23612,37.777Z" style="fill:none;stroke:#edc4a4;stroke-miterlimit:10;stroke-width:1.00062992125984px"/><path d="M412.13829,70.2204c.1038,17.71583-13.27691,31.58451-30.69975,31.81926a31.3863,31.3863,0,0,1-.90765-62.766A31.02262,31.02262,0,0,1,412.13829,70.2204Z" style="fill:none;stroke:#edc4a4;stroke-miterlimit:10;stroke-width:1.00062992125984px"/><path d="M1084.4978,1250.25788a31.38416,31.38416,0,0,1-1.38875,62.74848c-17.85514-.35275-31.29482-14.51363-30.8039-32.457A30.953,30.953,0,0,1,1084.4978,1250.25788Z" style="fill:none;stroke:#edc4a4;stroke-miterlimit:10;stroke-width:1.00062992125984px"/><path d="M414.785,1283.00792c-.06328,17.06512-14.25137,30.91337-31.63954,30.88179a31.13692,31.13692,0,1,1,.51709-62.27143A31.26421,31.26421,0,0,1,414.785,1283.00792Z" style="fill:none;stroke:#edc4a4;stroke-miterlimit:10;stroke-width:1.00062992125984px"/></g></g></g></svg>