<svg xmlns="http://www.w3.org/2000/svg" viewBox="0 0 535.51172 535.51172"><title>icon_1</title><g id="abc334bc-59b9-4bba-a26e-5e832e5c60e2" data-name="Layer 2"><g id="0e76831e-b5d6-4702-830b-6e8e0392a22a" data-name="Layer 1"><path d="M302.31227,343.67016q-1.00311,0-2.01661-.04158A47.46012,47.46012,0,1,1,349.713,298.20987v.00693A47.53223,47.53223,0,0,1,302.31227,343.67016Z" style="fill:#ccc"/><path d="M349.63747,243.01424q-.48014,0-.96524-.0199a22.71659,22.71659,0,1,1,23.65338-21.73947v.00332A22.75111,22.75111,0,0,1,349.63747,243.01424Z" style="fill:#ccc"/><path d="M444.81641,199.41309a127.12809,127.12809,0,0,0-36.20752-51.14161c-20.8169-17.61328-47.63282-28.46875-79.7041-32.26562-38.35254-4.541-69.40284,8.00781-92.29541,37.28613-19.5293,24.97656-31.29834,59.51758-41.1045,93.11621l-2.70361,9.24219c-18.9082,64.56934-32.56982,111.22168-13.7627,144.22168,9.67676,16.97949,26.89942,28.42871,52.65479,35.00488a106.64517,106.64517,0,0,0,26.2373,3.02735c26.93653,0,59.06055-8.01172,90.45411-22.56055,31.94677-14.80469,59.5664-34.82129,77.771-56.36328,13.856-16.39551,24.06592-42.36914,28.0127-71.2627C458.39453,256.78223,455.07324,225.42188,444.81641,199.41309ZM402.09863,338.65234c-31.5581,37.34082-99.04883,67.78223-144.21484,67.78028a74.80006,74.80006,0,0,1-18.39893-2.07617l-.00195-.001c-17.03613-4.35059-27.85547-10.918-33.07617-20.07813-12.187-21.38671.52783-64.80664,16.62695-119.7832l2.70654-9.25586c8.75831-30.00683,19.05957-60.63379,34.99659-81.37793,14.15966-18.43262,31.32959-27.25,53.44091-27.25a93.93841,93.93841,0,0,1,11.02686.67676c56.52148,6.69238,80.30811,38.32519,90.30908,63.68262C432.71924,254.60254,422.62158,314.36719,402.09863,338.65234Z" style="fill:#ccc"/><path d="M457.08789,78.42383A267.7561,267.7561,0,0,0,78.42334,457.08789,267.7561,267.7561,0,1,0,457.08789,78.42383ZM157.45581,59.7124c-22.42505,55.92725-39.741,150.79492-57.863,250.09522-6.5415,35.84033-12.80078,70.11889-19.042,100.68823a234.3081,234.3081,0,0,1-48.31836-142.74C32.23242,177.71851,83.02588,99.333,157.45581,59.7124Zm110.3,443.56592a234.65724,234.65724,0,0,1-161.103-63.88745c7.92481-36.24072,15.71289-78.91577,23.92822-123.93189C150.147,208.24805,174.49707,74.82031,202.523,41.96191c.20361-.23852.41943-.479.62817-.71875a234.91579,234.91579,0,0,1,64.60474-9.00976c129.86768,0,235.52246,105.65527,235.52246,235.52246S397.62354,503.27832,267.75586,503.27832Z" style="fill:#ccc"/></g></g></svg>