<svg xmlns="http://www.w3.org/2000/svg" viewBox="0 0 98.76486 86.75702"><title>server</title><g id="e2d275e2-5fa9-4d92-a01f-2f0fa2dce187" data-name="Layer 2"><g id="8183169c-e58d-4128-bef3-8f0bcb6461fb" data-name="Layer 1"><path d="M78.997,54.14168H54.88917a6.11918,6.11918,0,0,0-4.4942-4.51129V38.57381H47.51508V49.63033a6.119,6.119,0,0,0-4.49463,4.51135H18.91254a5.06266,5.06266,0,0,0-5.05712,5.05664v6.894h2.835v-6.894a2.22422,2.22422,0,0,1,2.22216-2.22168H43.02045a6.09946,6.09946,0,0,0,11.86872,0H78.997a2.22422,2.22422,0,0,1,2.22216,2.22168v6.894h2.835v-6.894A5.06267,5.06267,0,0,0,78.997,54.14168ZM48.955,58.83162a3.29519,3.29519,0,0,1-3.27246-3.27246,3.23288,3.23288,0,0,1,.42237-1.57611,3.27325,3.27325,0,0,1,1.25537-1.26379c.08789-.04956.17322-.10309.26587-.14454a3.20886,3.20886,0,0,1,2.65771.00013c.09265.0415.178.095.26587.14459a3.27174,3.27174,0,0,1,1.25476,1.26349,3.17079,3.17079,0,0,1,.12415,2.92413A3.27088,3.27088,0,0,1,48.955,58.83162Z" style="fill:#edc4a4"/><g style="opacity:0.8"><path d="M75.97959,4.92265a1.62264,1.62264,0,0,0,1.57177-.53006A20.11575,20.11575,0,0,0,80.77621,0h-.46372a19.78285,19.78285,0,0,1-3.04022,4.10835,1.23623,1.23623,0,0,1-1.19736.427C74.913,4.24954,73.79524,2.17626,72.9033,0h-.43281C73.41654,2.33684,74.62993,4.59053,75.97959,4.92265Z" style="fill:#edc4a4"/><path d="M82.49526,6.50308c-.50279-.19114-1.38114.32725-2.597,1.044-1.947,1.14814-4.61314,2.7207-6.059,1.24818-.61714-.629-1.20481-1.31895-1.773-1.9854-1.80163-2.11314-3.50336-4.10964-5.25919-2.8191a9.30625,9.30625,0,0,0-1.7763,2.71412C63.608,9.48469,61.8396,13.806,60.45188,17.36161h.42479c2.26821-5.801,4.993-12.1865,6.16717-13.0491,1.45642-1.07135,2.96794.70238,4.71877,2.75619.57263.67182,1.165,1.36669,1.79247,2.00552,1.66338,1.69579,4.48519.03127,6.54559-1.1837.94862-.5589,1.92958-1.13733,2.25333-1.01467.029.011.0624.03256.08673.10684a56.75782,56.75782,0,0,1,2.05024,8.1817,3.61455,3.61455,0,0,0,.24517-.91556,59.47088,59.47088,0,0,0-1.91628-7.38858A.53743.53743,0,0,0,82.49526,6.50308Z" style="fill:#edc4a4"/><path d="M77.33954,11.91557a11.2311,11.2311,0,0,1-3.33047-.98949c-1.87635-.7418-3.81538-1.50923-4.934-.86689a1.54556,1.54556,0,0,0-.60941.65407,2.49053,2.49053,0,0,0-.2333.76363A27.264,27.264,0,0,1,66.368,17.36161H66.8a27.23654,27.23654,0,0,0,1.82625-5.82468,1.45714,1.45714,0,0,1,.64735-1.13174c.95162-.54637,2.80077.18463,4.58866.892a11.4432,11.4432,0,0,0,3.4736,1.01775c1.21855.01145,1.78188.59489,2.07815,2.15314a19.12271,19.12271,0,0,1,.2413,2.89352h.39846a19.55184,19.55184,0,0,0-.24775-2.96816C79.47837,12.67,78.74043,11.929,77.33954,11.91557Z" style="fill:#edc4a4"/><path d="M74.24808,15.57844c-1.4796-.75719-3.32131-1.69987-4.36582-.97588a1.399,1.399,0,0,0-.44884.524,3.92408,3.92408,0,0,0-.2081,2.18048c.00229.01875.00172.03592.00372.0546h.39946c-.00358-.0342-.003-.06562-.00687-.1-.14055-1.22442.02362-2.00866.48819-2.331.84786-.5886,2.64492.33118,3.95664,1.00257a2.96545,2.96545,0,0,1,1.34865,1.42844h.448A3.39727,3.39727,0,0,0,74.24808,15.57844Z" style="fill:#edc4a4"/><path d="M63.572,0h-.41649A20.63233,20.63233,0,0,1,61.505,4.01145a110.066,110.066,0,0,0-4.8264,13.35016h.41721A108.68879,108.68879,0,0,1,61.85964,4.193,20.81583,20.81583,0,0,0,63.572,0Z" style="fill:#edc4a4"/><path d="M58.92647,0c-.4587,3.13346-3.84857,10.80744-6.99685,17.36161h.435C55.17093,11.509,58.82343,3.42007,59.31176,0Z" style="fill:#edc4a4"/><path d="M51.36929,6.60227A9.39023,9.39023,0,0,0,47.27354,0h-.8002a9.01944,9.01944,0,0,1,4.49979,6.64771c.27193,2.34421-2.38014,7.08559-4.69845,10.7139h.48319C49.07274,13.71713,51.65124,9.03028,51.36929,6.60227Z" style="fill:#edc4a4"/><path d="M18.79735,3.547c1.26707-1.45649,4.33692-1.26342,7.58695-1.05918A27.39585,27.39585,0,0,0,32.369,2.44926,50.73477,50.73477,0,0,0,39.62433.5438C40.25078.34156,40.8217.16287,41.36871,0H40.01992c-.1749.05618-.33605.106-.518.16473a50.46958,50.46958,0,0,1-7.20038,1.89109,27.08508,27.08508,0,0,1-5.8918.03413c-3.35137-.2111-6.51725-.41019-7.913,1.19508a2.67558,2.67558,0,0,0-.36568.54094,4.62574,4.62574,0,0,0-.19235,3.05217,36.50411,36.50411,0,0,0,4.41291,10.48347h.46114A36.64893,36.64893,0,0,1,18.32962,6.79784,3.64776,3.64776,0,0,1,18.79735,3.547Z" style="fill:#edc4a4"/><path d="M45.5834,7.558c-.5556-1.7217-1.10291-2.54974-1.88922-2.859-.89653-.35209-2.09905-.028-4.15057,1.11893A29.10132,29.10132,0,0,1,27.55405,8.82454c-1.382-.01281-2.39975.13253-2.87463.88435-.02419.03843-.04694.07765-.06784.11844-.4683.91527-.11364,2.48147,1.134,5.03721.42293.86633.86175,1.69887,1.29913,2.49707h.45485c-.469-.84908-.94089-1.74159-1.39545-2.67239-1.20238-2.46186-1.56219-4.02813-1.08745-4.76714.37584-.59611,1.2851-.71018,2.53356-.69816A29.5988,29.5988,0,0,0,39.73854,6.166c1.909-1.06684,3.04824-1.39431,3.80965-1.09525.66152.25941,1.14141,1.01567,1.65608,2.60977.5609,1.7368-1.07843,6.17211-2.5994,9.68113h.44039C44.5698,13.82182,46.17536,9.39052,45.5834,7.558Z" style="fill:#edc4a4"/><path d="M37.44313,9.97718a25.89892,25.89892,0,0,1-4.17232.88013c-1.89294.28582-3.26392.49285-3.706,1.35667l-.01016.01982c-.25805.52655-.1321,1.21161.39574,2.15572a3.3432,3.3432,0,0,0,3.26635,1.50408c3.398-.06219,8.19523-2.63089,8.63977-3.49929a2.10986,2.10986,0,0,0,.01345-2.34185C41.20326,9.26886,39.71392,9.24353,37.44313,9.97718Zm4.05869,2.23558c-.35194.68749-4.93016,3.22034-8.29255,3.2821a2.97839,2.97839,0,0,1-2.91084-1.3002c-.452-.80822-.57822-1.39238-.38529-1.78568l.00573-.01245c.34979-.68212,1.702-.8865,3.41134-1.14484a26.15678,26.15678,0,0,0,4.23529-.89545c2.04337-.65973,3.46444-.67576,4.00058-.04573A1.80886,1.80886,0,0,1,41.50182,12.21276Z" style="fill:#edc4a4"/><path d="M13.27237,9.03858v.9937a10.80842,10.80842,0,0,0,.98626,1.60827A44.10671,44.10671,0,0,1,17.815,17.36161h.45256A45.74421,45.74421,0,0,0,14.58037,11.404,9.61317,9.61317,0,0,1,13.27237,9.03858Z" style="fill:#edc4a4"/><path d="M15.14614,2.77465A26.45083,26.45083,0,0,1,21.20726,0h-1.159a23.166,23.166,0,0,0-5.13869,2.45291,6.20563,6.20563,0,0,0-1.63719,1.77924V5.088A5.8609,5.8609,0,0,1,15.14614,2.77465Z" style="fill:#edc4a4"/><path d="M53.284,4.94419a.53868.53868,0,0,0,.05611.00343.50563.50563,0,0,0,.43509-.2788A28.625,28.625,0,0,0,55.55077,0h-.41949a27.78541,27.78541,0,0,1-1.69615,4.45928c-.02576.04294-.06755.09447-.10019.08931C52.87681,4.48977,51.93821,2.37255,51.12885,0h-.42279C51.35541,1.937,52.45989,4.83813,53.284,4.94419Z" style="fill:#edc4a4"/><path d="M65.13458,2.13726c.72592,0,4.23472-.82668,5.19708-2.13483L70.33309,0h-.5619a10.23183,10.23183,0,0,1-4.63661,1.7388c-.01317,0-.04007,0-.079-.04465A3.34219,3.34219,0,0,1,64.79967,0h-.39888a3.5237,3.5237,0,0,0,.35652,1.95864A.49519.49519,0,0,0,65.13458,2.13726Z" style="fill:#edc4a4"/><path d="M65.83417,11.82268,65.813,11.821c-.5619,0-2.19779,3.66731-2.99241,5.54065h.42436a48.40009,48.40009,0,0,1,2.402-4.92236c-.138,1.31459-.54015,3.47961-.8231,4.92236h.40647c.29011-1.48318.69472-3.67461.82253-4.971C66.06774,12.23545,66.10381,11.87134,65.83417,11.82268Z" style="fill:#edc4a4"/><path d="M80.60446,4.38486a.189.189,0,0,1-.10133-.1311c-.21425-.65751.63661-2.59582,1.43152-4.1651a3.65637,3.65637,0,0,0-.42665-.053c-.76872,1.52769-1.64491,3.541-1.38443,4.34178a.58411.58411,0,0,0,.31831.37155,14.71084,14.71084,0,0,0,4.25361.42994l.09318-.00043V4.77831A15.03069,15.03069,0,0,1,80.60446,4.38486Z" style="fill:#edc4a4"/><path d="M82.56639,2.61242a2.92925,2.92925,0,0,0,1.74439.53471,3.77225,3.77225,0,0,0,.42622-.026,3.599,3.599,0,0,0-.07743-.39739,2.65622,2.65622,0,0,1-1.85845-.43423.45483.45483,0,0,1-.21984-.39388A2.09587,2.09587,0,0,1,83.31421.72613a3.61669,3.61669,0,0,0-.33934-.22026,2.334,2.334,0,0,0-.79262,1.3835A.85715.85715,0,0,0,82.56639,2.61242Z" style="fill:#edc4a4"/><path d="M13.27237,13.32254v.405c0,.02505.00687.04824.0073.07321a5.76257,5.76257,0,0,1,1.85917,1.77745,13.05147,13.05147,0,0,1,.53328,1.55374,3.57138,3.57138,0,0,0,.456.14155,14.86206,14.86206,0,0,0-.62631-1.86017A6.53145,6.53145,0,0,0,13.27237,13.32254Z" style="fill:#edc4a4"/><path d="M47.14917,3.90282c-.296-.4786-.60284-.97323-.85989-1.47016-.78374-1.51653-2.89509-.83068-5.81766.11794a31.00826,31.00826,0,0,1-8.32976,1.81709c-4.90912.20037-8.13,1.10433-9.57379,2.68613a3.20759,3.20759,0,0,0-.86733,2.4016c.09933,1.957,2.11207,5.62295,3.47933,7.90619h.46858c-1.3465-2.23651-3.4527-6.01582-3.54945-7.9268a2.82174,2.82174,0,0,1,.7637-2.11192c1.36941-1.5005,4.49636-2.361,9.295-2.55675a31.32664,31.32664,0,0,0,8.43739-1.83655c2.73479-.88679,4.71161-1.52856,5.3402-.31373.26392.51066.57421,1.01217.87477,1.49707,1.19193,1.92529,2.31859,3.7441.85759,6.28367a69.13754,69.13754,0,0,0-3.315,6.965h.43223a67.84889,67.84889,0,0,1,3.22857-6.76578C49.59314,7.849,48.35083,5.843,47.14917,3.90282Z" style="fill:#edc4a4"/><path d="M57.40651,0H57.002a33.00311,33.00311,0,0,1-1.14241,4.90068c-.7242,2.09968-4.44368,9.26113-6.1248,12.46093h.45141c1.73035-3.29383,5.321-10.218,6.05009-12.33041A33.74231,33.74231,0,0,0,57.40651,0Z" style="fill:#edc4a4"/><path d="M13.27237,5.75405v.49642a16.32586,16.32586,0,0,1,1.90311,1.56476c1.00844,1.06885,4.13711,6.7207,5.674,9.54638h.4547c-1.49893-2.7642-4.7607-8.678-5.839-9.82A18.32248,18.32248,0,0,0,13.27237,5.75405Z" style="fill:#edc4a4"/></g><g style="opacity:0.8"><path d="M22.08145,33.53617a1.62266,1.62266,0,0,0-1.57178.53005,20.11629,20.11629,0,0,0-3.22484,4.39259h.46372a19.783,19.783,0,0,1,3.04021-4.10834,1.23625,1.23625,0,0,1,1.19737-.427c1.16187.28582,2.27967,2.3591,3.17161,4.53535h.4328C24.6445,36.122,23.4311,33.86829,22.08145,33.53617Z" style="fill:#edc4a4"/><path d="M15.56578,31.95573c.50279.19114,1.38113-.32725,2.597-1.044,1.94705-1.14813,4.61314-2.7207,6.059-1.24817.61715.629,1.20481,1.319,1.773,1.9854,1.80163,2.11314,3.50337,4.10963,5.2592,2.81909a9.30657,9.30657,0,0,0,1.7763-2.71411c1.42279-2.77981,3.19122-7.10112,4.57894-10.65673h-.42479c-2.26822,5.801-4.993,12.1865-6.16717,13.0491-1.45642,1.07135-2.96795-.70237-4.71877-2.75619-.57264-.67182-1.165-1.36668-1.79247-2.00551-1.66338-1.69579-4.48519-.03127-6.54559,1.1837-.94862.55889-1.92959,1.13733-2.25333,1.01467-.02906-.011-.0624-.03256-.08673-.10684a56.75846,56.75846,0,0,1-2.05024-8.1817,3.61455,3.61455,0,0,0-.24517.91556,59.47107,59.47107,0,0,0,1.91627,7.38858A.5374.5374,0,0,0,15.56578,31.95573Z" style="fill:#edc4a4"/><path d="M20.7215,26.54325a11.23112,11.23112,0,0,1,3.33047.98948c1.87634.74181,3.81537,1.50923,4.934.8669a1.54555,1.54555,0,0,0,.60942-.65408,2.49044,2.49044,0,0,0,.23329-.76363A27.26514,27.26514,0,0,1,31.693,21.0972h-.43194a27.23654,27.23654,0,0,0-1.82625,5.82468,1.45716,1.45716,0,0,1-.64735,1.13175c-.95162.54637-2.80077-.18463-4.58867-.892a11.44336,11.44336,0,0,0-3.47359-1.01775c-1.21855-.01145-1.78188-.59489-2.07815-2.15314a19.12259,19.12259,0,0,1-.2413-2.89352h-.39846a19.55042,19.55042,0,0,0,.24775,2.96816C18.58267,25.78878,19.32061,26.5298,20.7215,26.54325Z" style="fill:#edc4a4"/><path d="M23.813,22.88037c1.47961.75719,3.32132,1.69987,4.36583.97589a1.399,1.399,0,0,0,.44883-.524,3.924,3.924,0,0,0,.2081-2.18048c-.00229-.01875-.00171-.03592-.00372-.0546h-.39945c.00357.03421.003.06562.00687.1.14054,1.22441-.02362,2.00866-.4882,2.331-.84786.58859-2.64491-.33119-3.95663-1.00258a2.96532,2.96532,0,0,1-1.34865-1.42844h-.448A3.39727,3.39727,0,0,0,23.813,22.88037Z" style="fill:#edc4a4"/><path d="M34.48907,38.45881h.41649a20.63362,20.63362,0,0,1,1.6505-4.01145A110.0662,110.0662,0,0,0,41.38245,21.0972h-.4172A108.68987,108.68987,0,0,1,36.2014,34.26581,20.816,20.816,0,0,0,34.48907,38.45881Z" style="fill:#edc4a4"/><path d="M39.13456,38.45881c.45871-3.13346,3.84858-10.80743,6.99686-17.36161h-.435c-2.80636,5.85266-6.45886,13.94155-6.9472,17.36161Z" style="fill:#edc4a4"/><path d="M46.69174,31.85655a9.39022,9.39022,0,0,0,4.09576,6.60226h.8002a9.01942,9.01942,0,0,1-4.49979-6.6477c-.27193-2.34422,2.38014-7.0856,4.69844-10.71391h-.48318C48.9883,24.74169,46.40979,29.42854,46.69174,31.85655Z" style="fill:#edc4a4"/><path d="M79.26369,34.9118c-1.26707,1.45649-4.33692,1.26341-7.587,1.05918a27.39589,27.39589,0,0,0-5.98469.03857A50.73314,50.73314,0,0,0,58.43671,37.915c-.62645.20223-1.19737.38092-1.74439.54379h1.3488c.17489-.05617.33605-.106.518-.16473A50.47091,50.47091,0,0,1,65.75946,36.403a27.08507,27.08507,0,0,1,5.8918-.03413c3.35137.21111,6.51725.41019,7.913-1.19508a2.675,2.675,0,0,0,.36568-.54093,4.62574,4.62574,0,0,0,.19236-3.05217A36.504,36.504,0,0,0,75.70937,21.0972h-.46114A36.649,36.649,0,0,1,79.73141,31.661,3.64778,3.64778,0,0,1,79.26369,34.9118Z" style="fill:#edc4a4"/><path d="M52.47764,30.90077c.5556,1.7217,1.1029,2.54974,1.88922,2.859.89652.35208,2.099.028,4.15057-1.11894A29.10129,29.10129,0,0,1,70.507,29.63428c1.382.01281,2.39974-.13254,2.87463-.88436.02418-.03843.04694-.07764.06784-.11843.46829-.91528.11364-2.48147-1.134-5.03722-.42293-.86632-.86174-1.69887-1.29913-2.49707h-.45484c.469.84908.94089,1.74159,1.39545,2.6724,1.20238,2.46186,1.56219,4.02812,1.08745,4.76714-.37584.59611-1.2851.71017-2.53357.69815a29.599,29.599,0,0,0-12.18835,3.058c-1.909,1.06684-3.04824,1.3943-3.80965,1.09525-.66152-.25941-1.14141-1.01567-1.65608-2.60978-.5609-1.7368,1.07843-6.17211,2.5994-9.68113h-.44039C53.49123,24.637,51.88568,29.0683,52.47764,30.90077Z" style="fill:#edc4a4"/><path d="M60.6179,28.48164a25.89933,25.89933,0,0,1,4.17233-.88014c1.89294-.28582,3.26392-.49284,3.706-1.35666l.01017-.01983c.258-.52655.1321-1.2116-.39574-2.15571a3.34317,3.34317,0,0,0-3.26635-1.50408c-3.398.06218-8.19523,2.63088-8.63977,3.49928a2.10984,2.10984,0,0,0-.01345,2.34185C56.85777,29.19,58.34711,29.21528,60.6179,28.48164Zm-4.05868-2.23559c.35194-.68749,4.93016-3.22034,8.29255-3.28209a2.97837,2.97837,0,0,1,2.91084,1.3002c.452.80821.57821,1.39237.38528,1.78567l-.00572.01245c-.3498.68213-1.702.88651-3.41134,1.14484a26.158,26.158,0,0,0-4.2353.89545c-2.04336.65973-3.46443.67576-4.00057.04573A1.80886,1.80886,0,0,1,56.55922,26.24605Z" style="fill:#edc4a4"/><path d="M84.78867,29.42024v-.99371a10.809,10.809,0,0,0-.98627-1.60827,44.10781,44.10781,0,0,1-3.55632-5.72106h-.45255a45.74454,45.74454,0,0,0,3.68713,5.95764A9.613,9.613,0,0,1,84.78867,29.42024Z" style="fill:#edc4a4"/><path d="M82.9149,35.68416a26.4504,26.4504,0,0,1-6.06112,2.77465h1.159a23.1655,23.1655,0,0,0,5.13869-2.45291,6.20574,6.20574,0,0,0,1.63719-1.77923v-.85581A5.86091,5.86091,0,0,1,82.9149,35.68416Z" style="fill:#edc4a4"/><path d="M44.777,33.51463a.53557.53557,0,0,0-.0561-.00344.50564.50564,0,0,0-.43509.27881,28.62381,28.62381,0,0,0-1.77559,4.66881h.4195a27.78483,27.78483,0,0,1,1.69615-4.45928c.02576-.04294.06755-.09446.10018-.08931.45814.05882,1.39674,2.176,2.2061,4.54859H47.355C46.70563,36.52186,45.60115,33.62068,44.777,33.51463Z" style="fill:#edc4a4"/><path d="M32.92646,36.32156c-.72592,0-4.23473.82668-5.19709,2.13482l-.00143.00243h.5619A10.23186,10.23186,0,0,1,32.92646,36.72c.01316,0,.04007,0,.079.04466a3.34224,3.34224,0,0,1,.25591,1.69414h.39888a3.52364,3.52364,0,0,0-.35652-1.95863A.4952.4952,0,0,0,32.92646,36.32156Z" style="fill:#edc4a4"/><path d="M32.22687,26.63614l.02118.00171c.56191,0,2.1978-3.66731,2.99242-5.54065h-.42436a48.40221,48.40221,0,0,1-2.402,4.92236c.138-1.31458.54014-3.47961.8231-4.92236h-.40647c-.29011,1.48319-.69472,3.67461-.82253,4.971C31.99329,26.22337,31.95723,26.58747,32.22687,26.63614Z" style="fill:#edc4a4"/><path d="M17.45657,34.074a.18905.18905,0,0,1,.10134.1311c.21425.65751-.63662,2.59583-1.43152,4.1651a3.65826,3.65826,0,0,0,.42665.053c.76871-1.5277,1.64491-3.541,1.38443-4.34178a.58411.58411,0,0,0-.31831-.37155,14.71084,14.71084,0,0,0-4.25361-.42994l-.09318.00043v.40017A15.03023,15.03023,0,0,1,17.45657,34.074Z" style="fill:#edc4a4"/><path d="M15.49464,35.84639a2.92921,2.92921,0,0,0-1.74438-.53471,3.76982,3.76982,0,0,0-.42622.026,3.59924,3.59924,0,0,0,.07743.39738,2.65629,2.65629,0,0,1,1.85845.43423.45484.45484,0,0,1,.21984.39388,2.09592,2.09592,0,0,1-.73293,1.16953,3.61749,3.61749,0,0,0,.33934.22027,2.3341,2.3341,0,0,0,.79262-1.3835A.85715.85715,0,0,0,15.49464,35.84639Z" style="fill:#edc4a4"/><path d="M84.78867,25.13628v-.405c0-.02505-.00687-.04823-.0073-.07321a5.76245,5.76245,0,0,1-1.85917-1.77744,13.05053,13.05053,0,0,1-.53328-1.55375,3.573,3.573,0,0,0-.456-.14155,14.8615,14.8615,0,0,0,.62631,1.86017A6.53156,6.53156,0,0,0,84.78867,25.13628Z" style="fill:#edc4a4"/><path d="M50.91187,34.556c.296.47861.60284.97324.85988,1.47016.78375,1.51653,2.8951.83069,5.81767-.11793a31.00749,31.00749,0,0,1,8.32976-1.81709c4.90912-.20037,8.13-1.10434,9.57379-2.68613a3.20766,3.20766,0,0,0,.86732-2.40161c-.09932-1.957-2.11206-5.62295-3.47932-7.90619h-.46858c1.3465,2.23651,3.4527,6.01582,3.54945,7.9268a2.82175,2.82175,0,0,1-.76371,2.11192c-1.3694,1.50051-4.49635,2.361-9.295,2.55675a31.32692,31.32692,0,0,0-8.43739,1.83656c-2.73479.88679-4.71161,1.52855-5.34021.31372-.26391-.51066-.57421-1.01216-.87476-1.49706-1.19193-1.92529-2.3186-3.7441-.8576-6.28368a69.13673,69.13673,0,0,0,3.315-6.965H53.276A67.85227,67.85227,0,0,1,50.04741,27.863C48.4679,30.6098,49.71021,32.61582,50.91187,34.556Z" style="fill:#edc4a4"/><path d="M40.65453,38.45881H41.059a33.00423,33.00423,0,0,1,1.14241-4.90067c.72421-2.09969,4.44369-9.26114,6.12481-12.46094H47.8748c-1.73036,3.29384-5.321,10.218-6.0501,12.33041A33.74225,33.74225,0,0,0,40.65453,38.45881Z" style="fill:#edc4a4"/><path d="M84.78867,32.70477v-.49643a16.32586,16.32586,0,0,1-1.90311-1.56476c-1.00845-1.06884-4.13712-6.7207-5.674-9.54638h-.4547c1.49892,2.76421,4.7607,8.678,5.839,9.82A18.32335,18.32335,0,0,0,84.78867,32.70477Z" style="fill:#edc4a4"/></g><g style="opacity:0.8"><path d="M75.65049,81.89141c.58194.05117,1.05353.10606,1.48.15593a16.846,16.846,0,0,0,2.88093.15465,2.27688,2.27688,0,0,0,2.06526-.94383c.6847-1.20287-.22857-3.23837-1.33906-5.27358l-.05367-.09825c-1.12337-2.04695-3.393-3.26171-6.38644-3.42014-.05653-.00458-4.10233-.31724-7.78889-.33513v.34643c3.66824.01782,7.70646.3299,7.76585.33463,2.87363.15221,5.04194,1.3032,6.1052,3.241,1.03478,1.89351,2.00859,3.95642,1.39559,5.03342a1.9667,1.9667,0,0,1-1.77572.76871,16.551,16.551,0,0,1-2.82883-.15235c-.42937-.05017-.90425-.1057-1.48991-.15694-1.56734-.13854-3.34393-.29533-4.82339-.32818-1.34979-.02962-2.72607-.0483-4.34879-.06447v.34678c1.61986.01618,2.99413.03478,4.34106.06427C72.31787,81.59715,74.08844,81.75358,75.65049,81.89141Z" style="fill:#edc4a4"/><path d="M93.24,74.46368a4.05242,4.05242,0,0,0-3.56262.77079,2.97284,2.97284,0,0,0-.81981,2.92823c.32289,1.77315-.50465,5.53178-1.32646,8.59432h.365c.82139-3.07006,1.63647-6.823,1.30271-8.65644a2.64985,2.64985,0,0,1,.71089-2.60863,3.74623,3.74623,0,0,1,3.23315-.69536c.539.157,2.86032,3.21876,5.622,7.11307v-.60241C96.21412,77.7266,93.87348,74.64831,93.24,74.46368Z" style="fill:#edc4a4"/><path d="M93.212,79.22932a1.2569,1.2569,0,0,0-1.214.42765c-.90482,1.069-.65579,4.04409-.08015,7.1h.35323c-.57621-2.99284-.84486-5.88765-.00845-6.87584a.91849.91849,0,0,1,.89953-.30858c1.34464.19487,3.24632,2.68256,5.03292,5.56942a3.54144,3.54144,0,0,0,.19022-.35029C96.57565,81.90715,94.63862,79.43621,93.212,79.22932Z" style="fill:#edc4a4"/><path d="M74.68484,77.71372a.324.324,0,0,0-.03593-.10591c-.0873-.15994-.40046-.45112-1.63575-.8679a24.28746,24.28746,0,0,0-6.50451-1.1409v.34256c3.4796.08981,7.605,1.3918,7.83,1.80443l.00587.01331c-.00315.00722-.08945.18505-1.11021.40418a44.04725,44.04725,0,0,1-6.72563.63453v.33863a48.4716,48.4716,0,0,0,6.76485-.627C74.32316,78.28786,74.74509,78.04977,74.68484,77.71372Z" style="fill:#edc4a4"/><path d="M94.74224,85.55844c-.305-.17905-.49-.11228-.592-.02491-.19006.16338-.20323.61679-.11049,1.22349h.3342c-.09633-.51975-.10577-.86754.00243-.9605.01145-.00973.073-.00773.19007.061a4.32125,4.32125,0,0,1,.938.8727,3.61028,3.61028,0,0,0,.41506-.04187A5.25155,5.25155,0,0,0,94.74224,85.55844Z" style="fill:#edc4a4"/><path d="M94.05511,67.78735a1.322,1.322,0,0,0,.05653,1.19322c.2383.43674.50437.984.81237,1.61808a31.9722,31.9722,0,0,0,3.84085,6.46451v-.52734A33.38821,33.38821,0,0,1,95.218,70.45538c-.30986-.63733-.57764-1.188-.81952-1.63132a.9954.9954,0,0,1-.04136-.91062,4.284,4.284,0,0,1,1.82353-1.67754,3.47486,3.47486,0,0,0-.45528-.09446A4.18207,4.18207,0,0,0,94.05511,67.78735Z" style="fill:#edc4a4"/><path d="M86.87162,75.28829c.23515-.33842.5015-.69394.778-1.06241,1.18906-1.5858,2.53671-3.38307,2.47259-5.17525a5.16432,5.16432,0,0,1,1.449-2.95836h-.4225a5.13785,5.13785,0,0,0-1.3538,2.97009c.0604,1.67662-1.25018,3.42487-2.4069,4.96723-.27881.372-.54745.73029-.78518,1.07178-.42808.61586-.69844,2.32224-1.04079,4.48211A49.64995,49.64995,0,0,1,84.04923,86.757h.33749a50.14415,50.14415,0,0,0,1.49792-7.1223A16.12011,16.12011,0,0,1,86.87162,75.28829Z" style="fill:#edc4a4"/><path d="M80.77157,86.03275c-1.5566-1.082-8.24689-2.03042-13.99414-1.45692a3.489,3.489,0,0,0,.16173.30943c5.64377-.54415,12.138.36761,13.64535,1.41634a.59559.59559,0,0,1,.2675.45542h.32818a.92919.92919,0,0,0-.09733-.38722A.995.995,0,0,0,80.77157,86.03275Z" style="fill:#edc4a4"/><path d="M71.57534,66.09227h-.46815a21.87264,21.87264,0,0,1-3.16946,2.74782,3.57512,3.57512,0,0,1-1.38157.30765c-.01431.10612-.02748.21232-.03234.32116a4.02154,4.02154,0,0,0,1.57034-.342A23.88707,23.88707,0,0,0,71.57534,66.09227Z" style="fill:#edc4a4"/><path d="M72.691,70.07188c.408.51954,2.02319.46916,5.08144.326,1.90468-.08909,4.06341-.19013,6.19551-.10276A6.36363,6.36363,0,0,0,90.229,66.09227h-.33519a5.97424,5.97424,0,0,1-5.913,3.87592c-2.146-.08766-4.31258.01381-6.22356.10319-2.30672.108-4.48576.20989-4.80908-.20137a.14778.14778,0,0,1-.01875-.15078,22.9039,22.9039,0,0,1,2.08015-3.627h-.39044a21.5562,21.5562,0,0,0-2.00286,3.53486A.47546.47546,0,0,0,72.691,70.07188Z" style="fill:#edc4a4"/><path d="M77.69257,66.98858c.27866.51052.88664.48891,1.99084.44948a25.71214,25.71214,0,0,1,5.03435.24682,3.24616,3.24616,0,0,0,3.09761-.76085,2.249,2.249,0,0,0,.4225-.83176H87.902a1.88945,1.88945,0,0,1-.33591.62016,2.95459,2.95459,0,0,1-2.80149.64856,26.09525,26.09525,0,0,0-5.09289-.25018c-1.07428.03857-1.51739.04186-1.69229-.27873a1.25173,1.25173,0,0,1-.0113-.73981h-.33047A1.49112,1.49112,0,0,0,77.69257,66.98858Z" style="fill:#edc4a4"/></g><g style="opacity:0.8"><path d="M23.11437,70.95788c-.58194-.05116-1.05353-.106-1.48-.15593a16.84712,16.84712,0,0,0-2.88093-.15464,2.27688,2.27688,0,0,0-2.06526.94382c-.6847,1.20288.22856,3.23838,1.33906,5.27359l.05367.09825c1.12337,2.04695,3.393,3.2617,6.38643,3.42014.05654.00458,4.10234.31723,7.7889.33512V80.3718c-3.66824-.01782-7.70646-.3299-7.76585-.33462-2.87363-.15221-5.04194-1.30321-6.1052-3.241-1.03478-1.89352-2.00859-3.95642-1.3956-5.03342a1.96672,1.96672,0,0,1,1.77573-.76872,16.55087,16.55087,0,0,1,2.82883.15236c.42937.05016.90425.10569,1.48991.15693,1.56734.13855,3.34393.29534,4.82339.32818,1.34979.02963,2.72606.04831,4.34879.06448v-.34679c-1.61986-.01617-2.99413-.03478-4.34106-.06426C26.447,71.25215,24.67642,71.09571,23.11437,70.95788Z" style="fill:#edc4a4"/><path d="M5.52484,78.38561a4.05234,4.05234,0,0,0,3.56261-.77079,2.97277,2.97277,0,0,0,.81981-2.92822c-.32288-1.77315.50465-5.53178,1.32647-8.59433h-.365c-.82138,3.07006-1.63647,6.823-1.3027,8.65644a2.64989,2.64989,0,0,1-.71089,2.60864,3.74624,3.74624,0,0,1-3.23315.69536C5.083,77.8957,2.7617,74.83394,0,70.93964v.6024C2.55074,75.12269,4.89137,78.201,5.52484,78.38561Z" style="fill:#edc4a4"/><path d="M5.55289,73.62a1.25687,1.25687,0,0,0,1.214-.42765c.90482-1.069.65579-4.04408.08015-7.1H6.49378c.57621,2.99285.84485,5.88766.00844,6.87585a.91848.91848,0,0,1-.89953.30857c-1.34464-.19486-3.24631-2.68255-5.03292-5.56942a3.5436,3.5436,0,0,0-.19021.3503C2.18921,70.94214,4.12624,73.41309,5.55289,73.62Z" style="fill:#edc4a4"/><path d="M24.08,75.13557a.32406.32406,0,0,0,.03593.10592c.0873.15994.40045.45112,1.63575.86789a24.287,24.287,0,0,0,6.50451,1.14091v-.34257c-3.47961-.08981-7.605-1.3918-7.83-1.80442L24.42037,75.09c.00315-.00723.08945-.18506,1.1102-.40418a44.04739,44.04739,0,0,1,6.72564-.63454v-.33862a48.4716,48.4716,0,0,0-6.76485.627C24.44169,74.56144,24.01977,74.79952,24.08,75.13557Z" style="fill:#edc4a4"/><path d="M4.02262,67.29086c.305.179.49005.11228.59195.0249.19007-.16337.20324-.61679.11049-1.22349H4.39087c.09632.51975.10577.86754-.00243.9605-.01145.00973-.073.00773-.19007-.061a4.3212,4.3212,0,0,1-.938-.87269,3.61034,3.61034,0,0,0-.415.04186A5.2512,5.2512,0,0,0,4.02262,67.29086Z" style="fill:#edc4a4"/><path d="M4.70975,85.06194a1.322,1.322,0,0,0-.05653-1.19321c-.2383-.43674-.50437-.984-.81237-1.61808A31.97312,31.97312,0,0,0,0,75.78614v.52734a33.38879,33.38879,0,0,1,3.54688,6.08044c.30986.63732.57764,1.188.81952,1.63131a.9954.9954,0,0,1,.04136.91062A4.28408,4.28408,0,0,1,2.58423,86.6134a3.478,3.478,0,0,0,.45527.09446A4.18212,4.18212,0,0,0,4.70975,85.06194Z" style="fill:#edc4a4"/><path d="M11.89324,77.561c-.23515.33841-.5015.69393-.778,1.0624-1.18906,1.5858-2.53671,3.38307-2.47259,5.17526a5.16433,5.16433,0,0,1-1.449,2.95835h.4225A5.1378,5.1378,0,0,0,8.97,83.78693c-.0604-1.67661,1.25018-3.42486,2.4069-4.96723.2788-.372.54745-.73028.78517-1.07177.42808-.61586.69844-2.32225,1.04079-4.48211a49.653,49.653,0,0,1,1.51281-7.17355h-.33748a50.14462,50.14462,0,0,0-1.49793,7.12231A16.11992,16.11992,0,0,1,11.89324,77.561Z" style="fill:#edc4a4"/><path d="M17.99329,66.81655c1.5566,1.082,8.24689,2.03041,13.99414,1.45692a3.48759,3.48759,0,0,0-.16173-.30943c-5.64377.54415-12.138-.36761-13.64535-1.41635a.59558.59558,0,0,1-.2675-.45542h-.32818a.92929.92929,0,0,0,.09732.38722A.99506.99506,0,0,0,17.99329,66.81655Z" style="fill:#edc4a4"/><path d="M27.18951,86.757h.46816a21.87209,21.87209,0,0,1,3.16946-2.74782,3.57514,3.57514,0,0,1,1.38157-.30764c.01431-.10613.02747-.21232.03234-.32117a4.02182,4.02182,0,0,0-1.57035.342A23.88878,23.88878,0,0,0,27.18951,86.757Z" style="fill:#edc4a4"/><path d="M26.07387,82.77741c-.408-.51953-2.02319-.46915-5.08144-.326-1.90468.0891-4.06341.19014-6.19551.10276A6.36364,6.36364,0,0,0,8.53586,86.757h.33519a5.97424,5.97424,0,0,1,5.913-3.87591c2.146.08766,4.31258-.01381,6.22356-.10319,2.30671-.108,4.48576-.20989,4.80908.20137a.14779.14779,0,0,1,.01875.15078A22.90518,22.90518,0,0,1,23.75528,86.757h.39044a21.55621,21.55621,0,0,0,2.00286-3.53485A.4755.4755,0,0,0,26.07387,82.77741Z" style="fill:#edc4a4"/><path d="M21.07229,85.86071c-.27866-.51052-.88665-.4889-1.99084-.44947a25.71212,25.71212,0,0,1-5.03435-.24682,3.24618,3.24618,0,0,0-3.09761.76084,2.24889,2.24889,0,0,0-.4225.83176h.33591a1.8895,1.8895,0,0,1,.33591-.62015,2.95459,2.95459,0,0,1,2.80149-.64856,26.09606,26.09606,0,0,0,5.09289.25018c1.07428-.03857,1.51739-.04187,1.69228.27873a1.2516,1.2516,0,0,1,.01131.7398h.33047A1.49113,1.49113,0,0,0,21.07229,85.86071Z" style="fill:#edc4a4"/></g></g></g></svg>