<svg xmlns="http://www.w3.org/2000/svg" viewBox="0 0 88.41513 102.7583"><title>shield</title><g id="45bc8488-e23a-4b33-89e1-bfe2ed706ff1" data-name="Layer 2"><g id="2bc5bf63-b998-4076-8311-24f12ce47ebc" data-name="Layer 1"><path d="M43.47147,75.56543c.19873-.03369.36621-.228.49756-.57764.05639-.15014.12121-.364.19116-.616a13.57362,13.57362,0,0,1-1.592.78491A1.28846,1.28846,0,0,0,43.47147,75.56543Z" style="fill:none"/><path d="M77.69046,20.434c1.948-1.6217,3.8042-3.10571,5.44214-4.41492.33734-.26953,1.8161-1.28857,3.218-2.25634a4.35878,4.35878,0,0,0-.76148-.29664c-1.33752,1.04566-2.51947,1.97046-2.76507,2.16687-1.6399,1.31067-3.49805,2.79627-5.45,4.421a60.24608,60.24608,0,0,0-7.45118,7.37158c.157.0697.31421.13818.46753.21606A59.71042,59.71042,0,0,1,77.69046,20.434Z" style="fill:#edc4a4"/><path d="M80.60135,24.14661a73.8384,73.8384,0,0,1,7.66937-5.59046c-.00195-.19372-.00488-.38757-.00659-.5813a73.49987,73.49987,0,0,0-7.97674,5.78992,51.75251,51.75251,0,0,0-6.65064,6.52576c.10547.13159.21411.261.31177.39673A51.32523,51.32523,0,0,1,80.60135,24.14661Z" style="fill:#edc4a4"/><path d="M79.29666,46.7644a5.48651,5.48651,0,0,0-4.22094,1.84375L72.94461,50.721c-3.60376,3.574-5.98486,5.93518-8.33911,8.206-1.50732,1.45276-3.4436,3.08716-5.15161,4.52954-.636.53736-1.16528.95948-1.644,1.34107a24.02521,24.02521,0,0,0-3.04932,2.75976,3.24572,3.24572,0,0,0-1.11865,3.0376c.52954,1.90088,3.50635,3.02063,6.68091,3.94055l.15332.04431c3.19922.91883,6.70752-.1582,9.87378-3.02807.08569-.07349,8.59692-7.41492,11.96435-11.69141,2.757-3.50146,3.54364-7.98022,1.79047-10.196C83.45236,48.8396,81.67752,46.90942,79.29666,46.7644Zm2.62915,12.78992c-3.33764,4.23914-11.813,11.54944-11.90307,11.62683-3.03955,2.75489-6.38135,3.79322-9.40991,2.92334-2.95508-.85425-6.02051-1.94043-6.49463-3.64233a2.80379,2.80379,0,0,1,1.00512-2.56861A23.61935,23.61935,0,0,1,58.118,65.18433c.48194-.38416,1.01489-.80921,1.655-1.35022,1.71387-1.4469,3.6565-3.087,5.17554-4.55115,2.35693-2.27344,4.739-4.6355,8.34424-8.21094l2.13086-2.11279a5.0172,5.0172,0,0,1,3.8435-1.7013,4.42357,4.42357,0,0,1,.96485.16907,7.49118,7.49118,0,0,1,3.48492,2.544C85.30722,51.98132,84.50363,56.28027,81.92581,59.55432Z" style="fill:#edc4a4"/><path d="M62.1265,13.74292c1.92773.55859,4.96411.35645,9.832-1.64209-.291-.05249-.57715-.119-.86646-.17627-9.17041,3.57556-11.04541.21338-11.96948-1.4552a8.5881,8.5881,0,0,1-.59643-2.92456c-.17359-.09119-.34229-.195-.5149-.2887A9.865,9.865,0,0,0,58.69,10.70874,5.53119,5.53119,0,0,0,62.1265,13.74292Z" style="fill:#edc4a4"/><path d="M47.86307,98.95508c-4.68115-3.67163-11.37793-2.59693-16.56372-.824.22192.11646.4436.2334.66772.34815,5.01612-1.62732,11.27686-2.51929,15.59082.86474a1.08312,1.08312,0,0,1,.46314.78077c.0542.69848-.57935,1.61816-1.45313,2.63354.322-.13367.64258-.27026.96509-.40283a3.63983,3.63983,0,0,0,.981-2.26929A1.56871,1.56871,0,0,0,47.86307,98.95508Z" style="fill:#edc4a4"/><path d="M40.12332,100.755a3.858,3.858,0,0,0-2.78418.19959c.23853.09985.47486.20435.71387.3031a2.7728,2.7728,0,0,1,1.84253-.06372.92027.92027,0,0,1,.46558.70666c.02124.11451.01928.20557.03491.31446.17383.07068.34692.14282.52075.21374-.02148-.20446-.02832-.39477-.06982-.61853A1.40018,1.40018,0,0,0,40.12332,100.755Z" style="fill:#edc4a4"/><path d="M76.57645,52.65991C75.5,52.01355,67.3306,61.24316,65.26248,64.447c-.8291,1.28479-1.0122,1.95093-.61157,2.2273a.45386.45386,0,0,0,.14331.06994c.24976.07239.85864.04785,2.52075-.78357,3.72364-1.86255,10.73975-6.88745,10.88672-10.61279A2.91694,2.91694,0,0,0,76.57645,52.65991Zm.56421,4.4607c-2.49024,4.57861-11.345,9.41186-12.17456,9.17114l-.01953-.00745c-.00415-.01062-.09742-.27649.70581-1.52942C68.09427,60.94629,75.324,53.25574,76.35355,53.103,77.85282,54.02356,78.11014,55.33813,77.14066,57.12061Z" style="fill:#edc4a4"/><path d="M85.84848,37.44678c-1.77344,1.49621-2.96173,2.80664-2.99615,4.33838a4.68831,4.68831,0,0,0,1.87445,3.42627A7.83225,7.83225,0,0,0,87.893,47.05054c.041.01184.084.01635.12512.02759.01331-.16285.02283-.32593.0354-.48877a7.40963,7.40963,0,0,1-2.99158-1.741,4.24734,4.24734,0,0,1-1.71545-3.05213c.03223-1.42626,1.37488-2.75158,2.821-3.97168A4.28038,4.28038,0,0,1,88.41379,36.99c.001-.16858.00061-.33716.00134-.50586A4.78439,4.78439,0,0,0,85.84848,37.44678Z" style="fill:#edc4a4"/><path d="M87.4382,41.84668a1.13682,1.13682,0,0,0,.514,1.22656c.09363.0647.20716.11792.30884.179q.01318-.27612.02527-.55225c-.01709-.01147-.03662-.02209-.05347-.03369a.63876.63876,0,0,1-.31128-.71582,1.8214,1.8214,0,0,1,.42749-.75928c.00733-.2362.009-.4729.01514-.70923A2.75687,2.75687,0,0,0,87.4382,41.84668Z" style="fill:#edc4a4"/><path d="M84.67331,25.78394a8.8488,8.8488,0,0,1,3.67334-.71753q-.00292-.24611-.0061-.49244a9.313,9.313,0,0,0-3.8656.75708c-1.62262.71045-5.47931,4.18409-9.24127,7.80005.063.17627.11206.35572.16479.53467C79.187,30.01514,83.09329,26.47571,84.67331,25.78394Z" style="fill:#edc4a4"/><path d="M5.1702,16.77588a27.31563,27.31563,0,0,0,4.11792-3.81836q-.282.01684-.564.03247a26.16988,26.16988,0,0,1-3.78637,3.4646A6.63857,6.63857,0,0,1,.04715,17.48743q-.00073.19574-.00171.39123a9.13405,9.13405,0,0,0,1.20777.09009A6.5597,6.5597,0,0,0,5.1702,16.77588Z" style="fill:#edc4a4"/><path d="M8.4241,20.46436c2.53443-1.93165,5.0459-5.31519,6.91089-8.18689-.17529.02954-.3518.05676-.52783.08459a33.237,33.237,0,0,1-6.62329,7.78687c-2.25928,1.72143-5.39014,1.60034-8.15112.97973L.03128,21.526A16.11272,16.11272,0,0,0,3.47,21.94385,7.99833,7.99833,0,0,0,8.4241,20.46436Z" style="fill:#edc4a4"/><path d="M7.33426,25.28564c2.88086-1.49365,6.46631-3.35205,9.05078-6.45459a18.14857,18.14857,0,0,0,3.5232-7.52929c-.1438.03784-.28858.07348-.43287.11011a17.6088,17.6088,0,0,1-3.395,7.16528c-2.5332,3.041-6.07959,4.8789-8.92871,6.356a27.94825,27.94825,0,0,0-3.0874,1.749A46.68511,46.68511,0,0,0,0,30.11938c-.00024.17994.001.35987.00073.5398a48.71623,48.71623,0,0,1,4.293-3.65381A27.74126,27.74126,0,0,1,7.33426,25.28564Z" style="fill:#edc4a4"/><path d="M3.40653,31.55322a33.75767,33.75767,0,0,1,8.27685-2.978c3.71729-1.001,7.228-1.94629,9.37744-3.85889C23.771,22.30493,24.742,14.41968,25.086,9.63171c-.13867.05359-.27979.10181-.41895.15393-.35937,4.75049-1.32421,12.3689-3.86987,14.63379-2.07959,1.85059-5.54639,2.78418-9.2168,3.77246a34.01293,34.01293,0,0,0-8.3789,3.02149A12.93172,12.93172,0,0,0,.00589,34.05286c.00049.21008.00025.42028.001.63037A12.96092,12.96092,0,0,1,3.40653,31.55322Z" style="fill:#edc4a4"/><path d="M28.28787,18.00781a2.00734,2.00734,0,0,0,.62207-.11084C33.37357,16.4314,47.12943,8.33569,50.8616,2.41846c-.103-.08387-.208-.165-.31079-.24939l-.01538.0238C46.85965,8.042,33.21366,16.06592,28.78592,17.52a.94.94,0,0,1-1.04492-.12988c-1.04712-1.08448.00586-5.6919,1.11938-9.40393-.15991.07824-.32251.15-.48315.22644-1.04541,3.53308-2.1189,8.21313-.92139,9.45337A1.11043,1.11043,0,0,0,28.28787,18.00781Z" style="fill:#edc4a4"/><path d="M30.89676,13.19238a2.421,2.421,0,0,0,1.27051-.53418c.72363-.50244,1.58691-1.07226,2.58594-1.73193C38.84378,8.22607,44.57572,4.43506,48.26908.25635,48.16849.17065,48.0679.08557,47.96732,0c-3.65479,4.134-9.36157,7.90808-13.43238,10.59473-1.00146.66113-1.86669,1.23242-2.59423,1.7373-.60889.42236-1.063.55957-1.27686.3877-.65283-.52442.04273-3.4043.98779-6.22876q-.25781.14868-.51733.29358c-.83862,2.56726-1.57349,5.55847-.719,6.24475A.7443.7443,0,0,0,30.89676,13.19238Z" style="fill:#edc4a4"/><path d="M65.0994,18.98877a6.46134,6.46134,0,0,0,3.69092-1.11572A94.806,94.806,0,0,1,77.60965,12.819c-.24927-.02051-.49878-.03674-.74756-.05969A91.54666,91.54666,0,0,0,68.56766,17.544c-5.63477,3.81494-12.93018-3.80469-13.74268-4.68653-1.84033-1.99463-1.3247-5.60559-.70556-7.97558-.06616-.04541-.135-.08448-.20093-.13038-.05273-.03662-.10278-.07727-.15527-.11425-.66309,2.43957-1.25464,6.2948.76977,8.48974C57.33621,16.166,61.36893,18.98877,65.0994,18.98877Z" style="fill:#edc4a4"/><path d="M30.66532,21.86035c1.52-2.061,5.519-3.83252,9.38623-5.54541,3.54834-1.57226,6.8999-3.05664,8.19189-4.69726a46.62372,46.62372,0,0,0,4.49268-7.73706c-.10767-.08082-.21778-.15784-.325-.23951a46.48543,46.48543,0,0,1-4.47925,7.73145c-1.23145,1.5625-4.53907,3.02783-8.041,4.57959C35.97635,17.686,31.9285,19.47949,30.346,21.625c-2.25415,3.05652-7.66382,12.88306-9.63916,21.03809.14307-.03443.285-.07276.42981-.10083A73.644,73.644,0,0,1,30.66532,21.86035Z" style="fill:#edc4a4"/><path d="M17.24881,31.88037a.44473.44473,0,0,0-.15527-.46973c-.52442-.40039-2.37012-.09326-12.25293,4.835A12.72782,12.72782,0,0,0,.05033,40.25073c.00268.23877.00488.47754.00805.71631a12.16557,12.16557,0,0,1,4.959-4.366c9.10888-4.543,11.46435-5.15918,11.83593-4.87451q.01831.01392.00586.07764A123.309,123.309,0,0,0,15.814,45.5061q.19043-.20232.39453-.39575A123.277,123.277,0,0,1,17.24881,31.88037Z" style="fill:#edc4a4"/><path d="M11.93582,52.95459c-1.81591-1.61572-1.89648-4.10938-1.98144-6.749a16.56958,16.56958,0,0,0-.91065-5.90674,1.22142,1.22142,0,0,0-1.20019-.88721C5.96561,39.47974,2.67337,43.75623.27835,47.321c.01685.22913.03247.4585.05127.6875,2.387-3.59716,5.81275-8.20117,7.56226-8.20092.34814,0,.60547.21045.78564.64355a16.28756,16.28756,0,0,1,.88037,5.76709c.08789,2.72754.1709,5.30371,2.11426,7.0332a7.47073,7.47073,0,0,0,1.6709,1.11353c-.03528-.167-.07-.33423-.09656-.50244A6.8731,6.8731,0,0,1,11.93582,52.95459Z" style="fill:#edc4a4"/><path d="M16.36209,61.80811c-3.30273,1.18212-7.62744-4.021-10.18945-9.76856-.43115-.96728-.95459-1.44629-1.55029-1.38525-1.15918.0935-2.35742,2.26342-3.3418,4.68432q.067.38417.13721.7677C2.427,53.49072,3.626,51.13269,4.65409,51.0498c.42285-.03466.80126.3545,1.15625,1.15088C8.1077,57.356,11.9241,62.37842,15.35819,62.37793a3.366,3.366,0,0,0,1.13769-.1958,16.21423,16.21423,0,0,0,1.52466-.64295l-.27942-.30835C17.28055,61.44727,16.81742,61.64551,16.36209,61.80811Z" style="fill:#edc4a4"/><path d="M6.42459,60.26172c-.36279-.54248-.72607-1.08643-1.07959-1.62549-.45117-.6875-.93652-.9834-1.44189-.87988-.64429.13305-1.22363.95947-1.72266,2.06238q.07434.32849.15161.65661c.49829-1.25879,1.06348-2.209,1.65113-2.33032.32959-.06494.67627.1709,1.02978.709.35449.54.71826,1.085,1.08154,1.62842,2.25293,3.37158,4.582,6.8584,4.21143,8.72412a39.9209,39.9209,0,0,1-2.52148,6.06787c.07812.147.15112.29834.23047.44422a41.92,41.92,0,0,0,2.68066-6.43494C11.09793,67.25684,8.82791,63.85889,6.42459,60.26172Z" style="fill:#edc4a4"/><path d="M15.05448,70.05469c-.60108.668-1.22315,1.3584-1.89307,2.05273a17.01318,17.01318,0,0,0-3.53467,6.38281c.09155.14685.18067.29566.27368.44141a16.94488,16.94488,0,0,1,3.54615-6.54883c.67529-.69922,1.29931-1.39258,1.90283-2.063,1.9082-2.11987,3.624-4.01074,6.052-5.05078l-.28955-.31933C18.68118,66.0271,16.96536,67.93164,15.05448,70.05469Z" style="fill:#edc4a4"/><path d="M4.81229,65.313a1.85189,1.85189,0,0,0-.94629.66064c.04761.14637.09448.29309.14282.4386a1.74225,1.74225,0,0,1,.87622-.7091.48353.48353,0,0,1,.45752.17919c1.09033,1.14209,1.83887,2.97608,1.16065,4.27051-.18238.3479-.38477.78833-.58765,1.24976.07178.16455.147.32617.22021.48974.24707-.57348.49854-1.13452.719-1.55493.76514-1.46045-.03711-3.48437-1.2251-4.72949A.87418.87418,0,0,0,4.81229,65.313Z" style="fill:#edc4a4"/><path d="M23.763,68.30469c-2.36914.69043-3.75879,2.6333-5.103,4.51172A15.52982,15.52982,0,0,1,15.63553,76.273a14.00716,14.00716,0,0,0-3.76807,5.51172c.09205.12524.18946.24609.28272.37036.77685-1.86206,2.03735-4.28687,3.72461-5.56567a15.799,15.799,0,0,0,3.10791-3.542c1.36474-1.90771,2.6543-3.70947,4.8916-4.36181.16284-.04737.32227-.10327.48462-.15332l-.293-.32325C23.96439,68.23975,23.86478,68.27515,23.763,68.30469Z" style="fill:#edc4a4"/><path d="M24.99344,73.18848A11.48835,11.48835,0,0,0,18.576,79.08105a11.27393,11.27393,0,0,1-1.2041,1.91163,26.61,26.61,0,0,0-2.6648,4.311c.09473.10791.18506.21948.28077.32666a27.079,27.079,0,0,1,2.68823-4.38281,11.604,11.604,0,0,0,1.249-1.977,11.148,11.148,0,0,1,6.22656-5.71875c.91651-.39966,1.81531-.82007,2.68409-1.24329-.09974-.09826-.2013-.19421-.2981-.2959C26.71231,72.41284,25.86124,72.80994,24.99344,73.18848Z" style="fill:#edc4a4"/><path d="M47.27762,88.50293c-3.05029-1.6001-6.50684-3.41455-8.46387-5.22119-2.66845-2.46289-4.83984-3.07959-7.58886-3.86035a43.21581,43.21581,0,0,1-4.84571-1.60987c-1.53076-.627-2.59472-.75683-3.34619-.4082-.90478.418-1.24658,1.46338-1.64209,2.67334a9.82217,9.82217,0,0,1-1.85644,3.68262c-1.30591,1.48022-1.2461,3.66125-.739,5.69983.19214.17492.37744.35559.57227.52819-.62818-2.11413-.856-4.4685.4646-5.96533a10.28581,10.28581,0,0,0,1.93554-3.82177c.38233-1.16846.68409-2.09131,1.43165-2.437.645-.29785,1.60791-.16552,3.02929.41553a43.50472,43.50472,0,0,0,4.8877,1.62451c2.69824.76612,4.8291,1.3711,7.42773,3.77051,1.99561,1.8418,5.477,3.66895,8.54883,5.28076,3.02051,1.58545,5.874,3.08252,6.28516,4.09082a38.72184,38.72184,0,0,1,1.39648,6.28907c.125-.05933.25049-.11707.375-.17713a37.88586,37.88586,0,0,0-1.4043-6.26184C53.27957,91.65283,50.49832,90.19336,47.27762,88.50293Z" style="fill:#edc4a4"/><path d="M46.86942,92.80762A92.28266,92.28266,0,0,1,32.678,85.45313c-4.00342-2.57471-5.51855-1.5752-7.4375-.30762a17.08279,17.08279,0,0,1-1.51416.92383c-1.842.96643-1.23364,4.377-.425,7.079.187.13769.37207.2771.56128.413-1.272-4.04-1.26684-6.45068.04834-7.14038a17.31926,17.31926,0,0,0,1.54834-.94434c1.86768-1.23388,3.21826-2.125,7.00391.31055a92.82824,92.82824,0,0,0,14.27539,7.39551c2.48535.86963,3.46728,3.30468,4.25635,5.26172a15.35447,15.35447,0,0,1,.69043,2.18066q.18677-.07965.373-.16016a15.824,15.824,0,0,0-.69531-2.16894C50.58719,96.37207,49.52469,93.7373,46.86942,92.80762Z" style="fill:#edc4a4"/><path d="M36.03006,90.82617c-.13769-.6709-1.16113-1.08691-3.40185-1.7666-3.4878-1.05762-3.812-.80957-4.95948.67725-.19677.25537-.42334.54882-.70556.87939A6.544,6.544,0,0,0,25.8848,94.946c.13891.09131.27685.18323.417.27369-.07617-1.48767.05957-3.28785.96314-4.34571.2871-.33642.51757-.63476.71826-.895,1.03711-1.34423,1.19629-1.55078,4.52978-.53955,1.90918.57862,3.03321,1.0044,3.12842,1.4668.09229.44824-.77881,1.2251-1.84033,2.11963-1.46729,1.23657-3.321,2.748-4.72559,3.88476.123.07081.24243.14429.366.21436,1.39111-1.12646,3.18579-2.5907,4.61548-3.79541C35.55252,92.06934,36.157,91.44287,36.03006,90.82617Z" style="fill:#edc4a4"/><path d="M49.44608,83.85107c3.02832.79053,10.08716,8.60889,12.2622,11.55982.10376-.06616.20264-.13635.30591-.20288-2.28906-3.20362-9.33667-10.92359-12.46753-11.74072-3.0205-.78809-8.22326-4.80079-11.18676-7.29859-.19214.01465-.385.02417-.57837.03076C40.70389,78.689,46.24808,83.01685,49.44608,83.85107Z" style="fill:#edc4a4"/><path d="M48.27762,75.39258c.19531.83642.397,1.70068.59131,2.64258.749,3.63281,3.916,4.98242,6.71,6.17334a11.78766,11.78766,0,0,1,3.83154,2.17334c1.61646,1.69751,6.18262,3.011,9.356,3.75463.12231-.10742.23706-.22094.35815-.3291-3.13818-.726-7.85083-2.04394-9.427-3.699a12.02091,12.02091,0,0,0-3.96289-2.26514c-2.70459-1.15234-5.77-2.459-6.47705-5.88818-.19531-.94678-.39795-1.814-.59375-2.65235a35.0853,35.0853,0,0,1-.79565-4.07531l-.34754.3844C47.67044,72.78,47.95682,74.01953,48.27762,75.39258Z" style="fill:#edc4a4"/><path d="M43.969,74.98779c-.13135.34961-.29883.54395-.49756.57764a1.28846,1.28846,0,0,1-.90332-.40869c-.13684.05737-.277.10644-.41577.15942a2.10882,2.10882,0,0,0,1.24829.6521.79991.79991,0,0,0,.1372-.01172c.34815-.05908.61817-.33789.80225-.8291.089-.23694.19629-.613.31433-1.07471-.16516.10621-.32507.22046-.49426.3191C44.09024,74.62378,44.02542,74.83765,43.969,74.98779Z" style="fill:#edc4a4"/><path d="M58.43534,78.4707a11.78471,11.78471,0,0,0-3.10547-1.10937c-.31348-.041-.74512-.06153-.86621.23584-.207.51123.84521,1.40674,3.28222,3.22021.37988.28272.71094.5293.93408.70752.83716.66992,8.25806,3.54322,13.35279,5.47339.09936-.10351.20215-.20434.30078-.30871C66.5596,84.50342,59.6763,81.814,58.928,81.21533c-.22558-.18066-.561-.43017-.94482-.71631-.94776-.70507-3.167-2.35644-3.16358-2.73535.00049-.00049.083-.0581.4585-.00879a11.55959,11.55959,0,0,1,2.99267,1.07666,14.45829,14.45829,0,0,0,6.56348,1.73682c2.72949-.08325,10.92651-4.06677,16.70386-7.32813q.14795-.30889.29223-.62072c-5.75268,3.25988-14.35546,7.47155-17.00781,7.55237A14.1502,14.1502,0,0,1,58.43534,78.4707Z" style="fill:#edc4a4"/><path d="M60.66971,77.66406a.93781.93781,0,0,1-.66992-.35449c-.56934-.94824-2.61279-1.90625-4.77588-2.92041-2.123-.99463-4.52881-2.12256-4.47217-2.90478a23.92751,23.92751,0,0,1,1.41235-5.00928l-.68652.75952a21.457,21.457,0,0,0-1.12134,4.22143c-.07666,1.0542,2.13672,2.09131,4.69922,3.29249,2.01416.94433,4.09717,1.92089,4.60449,2.76513a1.29751,1.29751,0,0,0,.938.54053,3.96063,3.96063,0,0,0,.70508.05615c3.38916,0,10.812-3.05566,12.749-4.58447,1.41382-1.11646,6.56812-4.91919,10.46735-7.78418.0658-.20581.12073-.42041.18445-.62793-3.94159,2.895-9.42914,6.94092-10.89789,8.10059C71.81571,74.78564,63.44412,78.169,60.66971,77.66406Z" style="fill:#edc4a4"/><path d="M65.907,53.667a.46664.46664,0,0,0,.20508.04737c.33643,0,.64112-.35108.75391-.48145a26.97743,26.97743,0,0,0,2.52148-3.40967,24.146,24.146,0,0,1,2.813-3.69385,20.6315,20.6315,0,0,1,3.29444-2.84326,22.08111,22.08111,0,0,0,4.82177-4.543c3.14643-3.97155,6.30439-6.25708,8.09613-7.03515-.00085-.144-.00244-.28809-.00341-.43213-.02234.009-.04859.01831-.07032.02734-1.82129.76514-5.09668,3.10791-8.33392,7.19385a21.7422,21.7422,0,0,1-4.74561,4.46973,20.98765,20.98765,0,0,0-3.35205,2.894,24.53139,24.53139,0,0,0-2.853,3.74658,26.66935,26.66935,0,0,1-2.48829,3.36572c-.25878.29834-.42626.36719-.4873.33594-.235-.11267-.32935-.80859-.31714-1.8761l-.3728.41248C65.42362,52.8175,65.57413,53.50732,65.907,53.667Z" style="fill:#edc4a4"/><path d="M75.909,39.793c.68262-.27246,1.78711-1.7627,3.06543-3.48828a24.0542,24.0542,0,0,1,3.66455-4.30225,42.18764,42.18764,0,0,1,5.75262-3.00561c-.00146-.14551-.002-.291-.00354-.43653a43.248,43.248,0,0,0-5.983,3.12183,23.72,23.72,0,0,0-3.74951,4.38623c-1.13818,1.53662-2.31543,3.12549-2.894,3.35644-.11646.04651-.2688.09754-.44214.15088-.04883.14966-.104.29737-.16016.44519C75.51785,39.92334,75.78519,39.84241,75.909,39.793Z" style="fill:#edc4a4"/><path d="M72.492,21.6123c.59814-.82177,1.2163-1.67187,2.08789-2.6958a42.65542,42.65542,0,0,1,7.23852-5.82568c-.21655-.011-.43286-.02368-.64966-.03516a40.65427,40.65427,0,0,0-6.89062,5.604c-.88184,1.03515-1.50488,1.89111-2.10693,2.71924a25.8572,25.8572,0,0,1-4.85279,5.29614c.17053.02453.34107.04761.50952.08093A26.13677,26.13677,0,0,0,72.492,21.6123Z" style="fill:#edc4a4"/><path d="M26.26639,39.68018a30.77664,30.77664,0,0,0,1.13574-3.63184c.67822-2.59326,1.21338-4.6416,5.939-11.36621,4.02685-5.73,6.12353-5.63281,8.14892-5.54a5.72749,5.72749,0,0,0,4.43653-1.27734c1.82177-1.43164,2.94677-1.99659,3.74511-1.89893.74854.09375,1.2876.79443,2.03418,1.76465.27491.35742.58692.76269.94678,1.186,1.83545,2.15821,3.65186,2.147,5.94775,2.13477.76221-.00342,1.625-.0083,2.563.06543.97217.07764,1.53028.30762,1.65918.68457.34424,1.00781-2.04736,3.293-4.52685,5.54687a10.69175,10.69175,0,0,0-2.85352,5.911l.55139-.61a9.68075,9.68075,0,0,1,2.56873-5.00708c3.30322-3.00293,5.02051-4.84326,4.63574-5.96875-.187-.54834-.84277-.85986-2.00342-.95215-.95556-.07617-1.82715-.07129-2.59619-.06689-2.28564.0122-3.92773.02246-5.64307-1.99463-.354-.41651-.66259-.81738-.93505-1.17139-.80518-1.04639-1.38672-1.80224-2.29932-1.916-.93164-.12207-2.10156.45654-4.03955,1.98a5.32558,5.32558,0,0,1-4.17285,1.19336c-2.13916-.09961-4.34082-.19873-8.4917,5.708-4.76709,6.78321-5.31055,8.86231-5.99854,11.49463a30.4597,30.4597,0,0,1-1.12207,3.58936c-.39563,1.02661-.71386,2.04443-.98535,3.02746.13086.02527.2605.05384.39014.08448C25.5679,41.68481,25.878,40.68835,26.26639,39.68018Z" style="fill:#edc4a4"/><path d="M29.84451,39.71826a33.74879,33.74879,0,0,0,2.86084-5.87988c.958-2.35254,1.78516-4.38428,2.85694-4.68359a1.49275,1.49275,0,0,1,1.30273.37451c3.1167,2.3164,5.3335,4.271,5.47364,8.34765a20.88846,20.88846,0,0,0,2.05163,7.608l.282-.31189a20.00686,20.00686,0,0,1-1.93713-7.30982c-.146-4.2539-2.42725-6.26953-5.63379-8.65234a1.85908,1.85908,0,0,0-1.64551-.43848c-1.25976.35205-2.07959,2.36621-3.11816,4.9165a33.46086,33.46086,0,0,1-2.82422,5.81055,11.71053,11.71053,0,0,0-1.63977,4.14588c.12122.06774.23767.14331.35608.21618A11.41549,11.41549,0,0,1,29.84451,39.71826Z" style="fill:#edc4a4"/><path d="M38.29569,44.40918a11.09958,11.09958,0,0,1-.95752-2.84375c-.09961-.4834-.16016-.7749-.40625-.93213-.25782-.16406-.62549-.11475-1.40625.06738-1.11011.26026-2.4773,3.33911-3.634,6.59607l.30664.33814c1.2168-3.45276,2.51587-6.33606,3.41822-6.54749.59717-.14062.96924-.20556,1.102-.11963.105.0669.15478.31006.231.67774a11.44627,11.44627,0,0,0,.98876,2.93554c.34522.71631.64991,1.40088.94483,2.06348a26.87578,26.87578,0,0,0,1.582,3.18262l.28027-.31006a27.50569,27.50569,0,0,1-1.49951-3.03418C38.9495,45.81787,38.64334,45.13037,38.29569,44.40918Z" style="fill:#edc4a4"/><path d="M35.7,49.84424a.63549.63549,0,0,0-.6499-.13867,1.31782,1.31782,0,0,0-.54321.47631l.262.28919a1.0347,1.0347,0,0,1,.41309-.391.24039.24039,0,0,1,.26025.06592c.62793.53711,1.12988,1.03173,1.66162,1.55517q.42371.41786.88989.86l.26612-.29431q-.46033-.43579-.87769-.84839C36.84549,50.89014,36.33866,50.39063,35.7,49.84424Z" style="fill:#edc4a4"/><path d="M52.98758,28.21924c.41065-.87988.835-1.78955,1.25244-2.77149.4878-1.14843.5752-1.80566.29151-2.19873-.33789-.46777-1.10743-.40429-2.08057-.32519a7.63133,7.63133,0,0,1-3.85107-.38672,5.0102,5.0102,0,0,0-4.03711-.13916,5.316,5.316,0,0,0-2.81885,2.77588c-.36865.95752.92236,2.33887,2.41748,3.93847,1.26953,1.3584,2.582,2.76319,2.69531,3.78516A72.38915,72.38915,0,0,0,48.845,40.55713l.31324-.34668a70.24688,70.24688,0,0,1-1.907-7.35693c-.12793-1.15284-1.48632-2.60645-2.7998-4.01221-1.28662-1.376-2.61621-2.79932-2.3374-3.5249a4.89581,4.89581,0,0,1,2.60009-2.55176,4.55809,4.55809,0,0,1,3.72364.13476,7.98786,7.98786,0,0,0,4.0459.41993c.81347-.06739,1.519-.125,1.72607.16211.18164.25146.06885.86084-.335,1.811-.41455.97559-.83789,1.88232-1.24707,2.75879-1.31836,2.82422-2.35938,5.05469-1.76172,6.80811a16.88325,16.88325,0,0,1,.54272,2.86157l.35-.38709a15.69927,15.69927,0,0,0-.51672-2.60241C50.69559,33.12939,51.70682,30.9624,52.98758,28.21924Z" style="fill:#edc4a4"/><path d="M49.011,24.92285a1.71588,1.71588,0,0,0-2.08594.29639l-.05371.04639-.01269.06933c-.0503.28125-.47461,2.76807.19335,3.53565a.68594.68594,0,0,0,.53077.2456l.03076-.00049c1.27881-.05029,2.35937-.20459,2.63476-1.58154A2.78473,2.78473,0,0,0,49.011,24.92285Zm.84863,2.5332c-.21972,1.09815-1.07617,1.21631-2.26172,1.26319a.27788.27788,0,0,1-.24609-.10889c-.44678-.51318-.24414-2.37158-.11475-3.13428a1.30667,1.30667,0,0,1,1.57325-.21093A2.379,2.379,0,0,1,49.85965,27.45605Z" style="fill:#edc4a4"/><path d="M67.13675,35.11743a1.89814,1.89814,0,0,0-2.60254.13086L38.6597,63.87134a1.82617,1.82617,0,0,1-2.64648.00244L24.39993,51.0603a1.8986,1.8986,0,0,0-2.60253-.12793,1.84464,1.84464,0,0,0-.12793,2.60254L33.28275,66.34839A5.47079,5.47079,0,0,0,41.3931,66.343L67.26761,37.72A1.846,1.846,0,0,0,67.13675,35.11743Z" style="fill:#ecc4a4"/></g></g></svg>