<svg xmlns="http://www.w3.org/2000/svg" viewBox="0 0 90.13977 93.73541"><title>tipi</title><g id="7563cc14-9cc2-42a2-af1f-b54c4595b9cd" data-name="Layer 2"><g id="4c2bdfc8-43aa-4c41-94f2-b60eb45e2063" data-name="Layer 1"><g style="opacity:0.8"><path d="M73.37915,91.0556c-.35107-.56836-1.70019-.56836-3.00488-.56836-2.10938,0-5.16992-2.09912-7.12012-4.0498a.96071.96071,0,0,0-.84424-.34619c-.55835.08313-1.12915.73321-1.65942,1.5368l1.439,2.55762c.01819-.01294.031-.03485.05-.04657a1.18978,1.18978,0,0,1,1.21094.02588c4.61035,2.30517,5.32227,2.8125,5.24609,3.13623-.02.085-.09228.186-.32226.186a1.0719,1.0719,0,0,0-.543.24817h4.47705a11.76813,11.76813,0,0,0,.91357-1.49426C73.48608,91.71332,73.53882,91.31439,73.37915,91.0556Z" style="fill:none"/><path d="M63.2981,90.46967a.86121.86121,0,0,0-.8794-.041c-.02246.01385-.03955.03986-.061.05627l1.82873,3.25049H67.292a2.25648,2.25648,0,0,1,.95484-.5758A49.96942,49.96942,0,0,0,63.2981,90.46967Z" style="fill:none"/><path d="M88.97974,88.87329l-1.637-2.908-.09448-.1676a18.57166,18.57166,0,0,0-2.72168,3.59576c-.50732,1.01422-1.27917,2.8194-1.91272,4.34192h3.39173a5.04979,5.04979,0,0,0,.19873-1.41809C86.20435,91.07159,87.61694,89.86328,88.97974,88.87329Z" style="fill:none"/><path d="M89.97278,90.63727l-.82532-1.46594c-1.28918.93847-2.60327,2.06268-2.60327,3.146a5.50884,5.50884,0,0,1-.18042,1.41809h1.59155a7.05424,7.05424,0,0,0,.249-1.41809C88.20435,91.71545,89.012,91.1828,89.97278,90.63727Z" style="fill:none"/><path d="M87.07324,85.48706q-1.01677-1.80734-2.03589-3.61334a11.9458,11.9458,0,0,0-3.51074,4.51977l-3.6709,7.34192h4.39014c.64539-1.55438,1.45056-3.44323,1.97607-4.49426A19.28986,19.28986,0,0,1,87.07324,85.48706Z" style="fill:none"/><path d="M38.25952,49.18427a5.29272,5.29272,0,0,0-3.95862-1.056,4.00347,4.00347,0,0,0-2.584,2.14947l-1.06445,1.91358c-1.79993,3.23675-2.98926,5.37518-4.1781,7.44488-.76148,1.32428-1.7865,2.863-2.69068,4.22076-.33667.5058-.62182.90912-.87988,1.27375a17.52207,17.52207,0,0,0-1.57666,2.55353,2.36835,2.36835,0,0,0-.16724,2.35614c.7572,1.22467,3.07092,1.405,5.48267,1.405H26.759c2.42884-.00586,4.669-1.47308,6.30518-4.1275.04517-.069,4.51941-6.94275,6.01123-10.6239C40.29651,53.68005,39.93823,50.38129,38.25952,49.18427Zm.48132,7.37414c-1.47839,3.64893-5.93371,10.49365-5.98107,10.56616-1.57081,2.5481-3.70215,3.95441-6.00147,3.95984-2.24463.00141-4.61352-.13733-5.2915-1.23376a2.04564,2.04564,0,0,1,.18286-2.0044,17.21874,17.21874,0,0,1,1.54858-2.50708c.25977-.36706.54712-.77319.88574-1.28235.90748-1.36218,1.9358-2.90619,2.703-4.24084,1.1903-2.072,2.38012-4.2113,4.18078-7.44928L32.032,50.45313a3.66138,3.66138,0,0,1,2.34839-1.97291,3.23276,3.23276,0,0,1,.71045-.07745,5.46708,5.46708,0,0,1,2.95923,1.0752C39.57288,50.564,39.88281,53.7403,38.74084,56.55841Z" style="fill:#edc4a4"/><path d="M23.55518,91.75116a1.14461,1.14461,0,0,0-.686-.66058c-3.94287-1.58905-8.31006.4057-11.5647,2.64483h.70142c3.13586-2.05127,7.16162-3.748,10.72852-2.31036a.79016.79016,0,0,1,.48315.45318,2.85836,2.85836,0,0,1-.35706,1.85718h.39075A2.903,2.903,0,0,0,23.55518,91.75116Z" style="fill:#edc4a4"/><path d="M22.87305,79.9823a3.09232,3.09232,0,0,0-2.26526-2.2077c-2.17029-.71772-6.18543-4.46881-8.64685-6.91553l-.18653.32959c2.47705,2.4632,6.47644,6.18652,8.72,6.92853a2.75627,2.75627,0,0,1,2.02784,1.94891,3.89689,3.89689,0,0,1-.97608,3.29877c-.64331.64642-9.91076,1.73236-18.08459,2.52307l-.21631.38269c6.6156-.63544,17.72534-1.8161,18.55652-2.65118A4.21535,4.21535,0,0,0,22.87305,79.9823Z" style="fill:#edc4a4"/><path d="M17.46411,81.2193a1.30748,1.30748,0,0,0,.21436-1.32166c-.63843-1.65179-4.6919-3.15649-8.4419-4.2218q-.09266.1637-.18518.32733c3.69788,1.04,7.69788,2.49128,8.29053,4.02442a.95557.95557,0,0,1-.1665.97516c-1.20374,1.60522-7.18372,1.936-12.042,1.92767q-.10326.18284-.20678.36554c.11291.00037.22314.00146.33728.00146C10.17139,83.29742,16.1803,82.93091,17.46411,81.2193Z" style="fill:#edc4a4"/><path d="M33.59155,52.81281c-.8855-.2345-4.73694,7.89331-5.53564,10.55877-.32031,1.06885-.31323,1.57288.02368,1.68524a.33306.33306,0,0,0,.11462.0199c.18958,0,.61145-.14087,1.60755-1.06109,2.23144-2.06165,6.12842-7.00831,5.47485-9.64911A2.12824,2.12824,0,0,0,33.59155,52.81281Zm1.30139,3.01159c-.81555,3.71478-6.03991,8.90051-6.67028,8.90021l-.01514-.00128c-.005-.00647-.12439-.17389.18408-1.21509.938-3.16534,4.44336-10.02362,5.13379-10.3396C34.76306,53.50928,35.21045,54.3783,34.89294,55.8244Z" style="fill:#edc4a4"/><path d="M39.61768,43.78357a4.16275,4.16275,0,0,0,1.28295.21112,2.244,2.244,0,0,0,1.3042-.34857,1.43267,1.43267,0,0,0-.09277-2.30145,2.47266,2.47266,0,0,0-2.15747-.05683v-.00018a2.237,2.237,0,0,0-.94629,1.74066A.8293.8293,0,0,0,39.61768,43.78357Zm.49816-2.173v-.00018a2.16085,2.16085,0,0,1,.9-.17975,1.74632,1.74632,0,0,1,.90625.221.96335.96335,0,0,1,.45654.87921.94089.94089,0,0,1-.38476.82257,2.80087,2.80087,0,0,1-2.26221.088.46624.46624,0,0,1-.36353-.43854A1.93244,1.93244,0,0,1,40.11584,41.61053Z" style="fill:#edc4a4"/><path d="M11.24,78.93494c-.10547-.49323-1.51758-.925-3.13257-1.26258q-.0952.16818-.19018.33618c1.676.34083,2.90783.71076,2.97,1.00177.00317.01532-.0293.07044-.15039.14313a11.77,11.77,0,0,1-3.91553.79285q-.108.19116-.21631.38214a12.80211,12.80211,0,0,0,4.31738-.86548C11.23779,79.27368,11.269,79.07141,11.24,78.93494Z" style="fill:#edc4a4"/><path d="M7.361,89.16083c.298-.34754.37439-.64575.22791-.8866-.4126-.67792-2.93921-.4621-5.44275-.05884l-.23181.41016c2.65588-.44257,5.06384-.66168,5.36645-.16382.07373.12128-.0896.343-.19372.46423A49.38468,49.38468,0,0,1,1.809,93.73541h.566A47.07188,47.07188,0,0,0,7.361,89.16083Z" style="fill:#edc4a4"/><path d="M1.17969,90.77808A.74224.74224,0,0,0,.798,90.60065l-.1809.32007a.51265.51265,0,0,1,.30041.10522c.01123.012.03491.03662.00586.12378A5.60317,5.60317,0,0,1,0,92.61987a.93338.93338,0,0,0,.14294.39667,6.48352,6.48352,0,0,0,1.12269-1.75275A.45872.45872,0,0,0,1.17969,90.77808Z" style="fill:#edc4a4"/><path d="M26.37427,87.1474c-.51758,0-1.1499-.02979-1.88233-.06445-3.53076-.167-8.86621-.41748-12.21972,2.09814-1.957,1.46784-3.92432,3.1853-5.42139,4.55432h.50562c1.45239-1.31836,3.28918-2.90887,5.11987-4.28186,3.25635-2.44287,8.51709-2.19531,12-2.03076.73633.03467,1.37256.06445,1.89795.06445a1.03589,1.03589,0,0,1,.85205.416c.55823.6958.67651,2.12.616,3.59936l.35144-.62475a5.4521,5.4521,0,0,0-.70179-3.1875A1.37511,1.37511,0,0,0,26.37427,87.1474Z" style="fill:#edc4a4"/><path d="M28.45044,83.165c-1.561-.78028-2.5044-2.84815-3.33643-4.67285-.20068-.43994-.394-.86377-.5874-1.251-.34912-.69775-1.77246-1.79492-3.57422-3.18359-2.41382-1.86084-5.43139-4.1894-7.11621-6.5141l-.1792.31677c1.73413,2.33368,4.69947,4.62573,7.08789,6.46637a16.75545,16.75545,0,0,1,3.47705,3.06689c.1919.3833.38379.80371.58252,1.23975.85547,1.876,1.8252,4.00195,3.49366,4.83643.96569.48272,1.69677,1.97674,2.185,3.33844l.22083-.3924C30.19336,85.07361,29.44727,83.66339,28.45044,83.165Z" style="fill:#edc4a4"/><path d="M16.532,66.4682a.96972.96972,0,0,0,.45557.11768,1.03572,1.03572,0,0,0,.46289-.11621c1.98242-.9917,7.04932-7.99122,9.085-14.09864a12.217,12.217,0,0,0,.169-7.57922l-.23.40668a11.965,11.965,0,0,1-.26124,7.06512c-2.0122,6.03613-6.97949,12.93408-8.915,13.90137a.62353.62353,0,0,1-.60791.00195,3.2894,3.2894,0,0,1-1.11475-1.69855l-.21314.37671A3.23972,3.23972,0,0,0,16.532,66.4682Z" style="fill:#edc4a4"/><path d="M18.37427,61.48724c.76416,0,2.353-2.49609,5.15234-8.09375a4.87952,4.87952,0,0,0,.08374-3.13141q-.12744.2255-.25513.45112a4.14186,4.14186,0,0,1-.1333,2.52795c-3.43945,6.87891-4.51367,7.90625-4.84765,7.90625-.18335,0-.38928-.2287-.5979-.57031q-.09448.16718-.18909.33423C17.83252,61.25922,18.09778,61.48724,18.37427,61.48724Z" style="fill:#edc4a4"/><path d="M29.67407,48.69086a.63709.63709,0,0,0,.21973.03906.85.85,0,0,0,.60058-.29248,9.20743,9.20743,0,0,0,3.04981-7.12012c0-1.72278.67322-6.82709,1.23816-10.80792q-.23016.40659-.46008.81341c-.53663,3.829-1.11792,8.35511-1.11792,9.99451a8.90137,8.90137,0,0,1-2.9502,6.87988c-.25146.251-.41162.19336-.46436.17383-.76477-.27661-1.416-2.99536-1.84228-5.7771q-.13476.23814-.26941.4762C28.07507,45.53723,28.72681,48.3479,29.67407,48.69086Z" style="fill:#edc4a4"/><path d="M29.98218,43.80316a.3426.3426,0,0,0,.063.00537c.18164,0,.34326-.13916.48144-.415.52271-1.04522.77564-4.148.89929-6.9497q-.18676.33-.37341.66027c-.1311,2.57361-.37549,5.2273-.83057,6.13709-.09814.19629-.17089.228-.18261.22705C29.759,43.42,29.397,42.203,29.075,40.60034q-.12891.22833-.25818.45661C29.12329,42.47241,29.522,43.72437,29.98218,43.80316Z" style="fill:#edc4a4"/><path d="M37.2981,36.46967a2.85244,2.85244,0,0,0,1.29248.30761c2.27148-.00049,4.72119-2.58691,7.10254-5.10156,1.69042-1.78516,3.28759-3.47168,4.75732-4.206a18.22132,18.22132,0,0,1,3.14575-1.20942l-.17212-.3045a18.52472,18.52472,0,0,0-3.126,1.20923c-1.523.76172-3.14014,2.46924-4.85206,4.27685-2.75585,2.91016-5.60742,5.92041-7.9956,4.72315-.98145-.49079-.92481-4.91846-.52637-9.4422q-.20233.35751-.40454.71527C36.19824,31.39984,36.11523,35.87805,37.2981,36.46967Z" style="fill:#edc4a4"/><path d="M36.78,44.00092c1.25049,1.36718,3.57764,3.91259,5.42578,3.95361l.04492.00049a1.70137,1.70137,0,0,0,1.24365-.51758c1.75147-1.751,5.395-5.395,4.94678-7.294a1.38382,1.38382,0,0,0-1.01318-.9873c-3.07276-1.02442-8.13135-1.00147-9.17383.041a14.91005,14.91005,0,0,0-1.9917,2.24707c-.521.82618-.52392,1.478-.0083,1.99317C36.38257,43.56635,36.56177,43.76215,36.78,44.00092Zm-.23-2.375a14.79054,14.79054,0,0,1,1.94433-2.18848c.47022-.46973,1.90528-.70313,3.59034-.70313a17.81327,17.81327,0,0,1,5.23584.74414,1.05453,1.05453,0,0,1,.78955.74317c.40478,1.71435-3.28174,5.40137-4.856,6.97558a1.37873,1.37873,0,0,1-1.041.41749c-1.70263-.03809-4.05273-2.6084-5.18212-3.84327-.22266-.24365-.40528-.44287-.53663-.57422C36.0979,42.80023,36.115,42.31586,36.55005,41.62592Z" style="fill:#edc4a4"/><path d="M47.10913,34.58246c.05029.45605.78516.92139,1.80176,1.56592,1.62842,1.03222,3.8584,2.44531,3.30224,4.11523-.23779.71289-.5332,1.42725-.81835,2.11768-.9043,2.189-1.75879,4.25683-.09668,5.08838a7.93722,7.93722,0,0,0,2.751.29394c3.0564,0,7.83252-.44342,11.251-.80841q-.09045-.15986-.18079-.3197c-5.58349.59411-12.46081,1.13421-13.66882.52948-1.3794-.68946-.62012-2.52637.25879-4.65381.2876-.6958.585-1.41553.82617-2.14014.64111-1.92187-1.71924-3.41748-3.44238-4.50976-.793-.50293-1.61328-1.02295-1.646-1.31641a.12386.12386,0,0,1,.04736-.10742,42.21415,42.21415,0,0,1,7.312-6.03723l-.16773-.29651a42.51037,42.51037,0,0,0-7.38452,6.0935A.45828.45828,0,0,0,47.10913,34.58246Z" style="fill:#edc4a4"/><path d="M53.22192,36.39349a9.5764,9.5764,0,0,1,.543,2.91309c.166,1.71289.33692,3.4834,1.25928,4.083a1.31833,1.31833,0,0,0,.7334.20849,2.11869,2.11869,0,0,0,.67041-.11963,26.69,26.69,0,0,1,6.37158-.94458l-.18726-.33123a26.56534,26.56534,0,0,0-6.29174.95355,1.243,1.243,0,0,1-1.11084-.05176c-.78467-.51025-.94825-2.19824-1.106-3.83057a9.75847,9.75847,0,0,0-.57715-3.03271c-.46484-.92969-.24072-1.584.82715-2.41455a18.96222,18.96222,0,0,1,2.62256-1.58948q-.08369-.148-.16748-.29608a19.23,19.23,0,0,0-2.66406,1.617C52.96362,34.4765,52.68774,35.32465,53.22192,36.39349Z" style="fill:#edc4a4"/><path d="M57.20435,37.31732c0,1.41748,0,3.18213.95556,3.69385a1.19423,1.19423,0,0,0,.57227.13721,3.34644,3.34644,0,0,0,1.73633-.68946c.28894-.19262.57763-.36145.8645-.51831q-.08387-.1485-.168-.29706c-.29309.16108-.58838.33442-.885.53217-.875.58252-1.53418.7627-1.95947.53516-.77637-.415-.77637-2.13672-.77637-3.39356a2.79475,2.79475,0,0,1,1.0885-2.15143l-.171-.30255A3.15021,3.15021,0,0,0,57.20435,37.31732Z" style="fill:#edc4a4"/><path d="M39.21313,30.26361c-.20166.60449-.14843,1.00781.1587,1.19727a.79523.79523,0,0,0,.42334.10107c1.56787,0,5.34326-2.76807,6.69921-4.12451.99463-.99463,2.51661-2.2627,3.98877-3.48926.40955-.34137.82032-.68469,1.22535-1.02582q-.08534-.15078-.17066-.30157c-.42016.35419-.84656.71081-1.27246,1.06567-1.478,1.23194-3.00586,2.50537-4.01123,3.51074-1.75439,1.75391-5.88184,4.4834-6.70312,3.97461-.19336-.11962-.11524-.50146-.01563-.80078.62964-1.8883.11157-5.2594-.38379-7.58667q-.12963.22906-.25928.45832C39.35168,25.51172,39.77954,28.5636,39.21313,30.26361Z" style="fill:#edc4a4"/><path d="M42.2981,24.46967a1.17155,1.17155,0,0,0,.52783.11181c1.77356,0,5.16589-2.86542,7.16076-4.70361l-.17346-.30664c-2.39648,2.19934-6.10876,5.22058-7.36279,4.59375-.84876-.42426-1.5166-2.0296-1.9978-3.68085q-.1161.20481-.23181.40973C40.72156,22.5033,41.4104,24.0257,42.2981,24.46967Z" style="fill:#edc4a4"/><path d="M45.344,20.95062c.03907,0,.07813-.00146.11768-.00537,1.12207-.10205,2.15674-1.60254,3.25244-3.1914l.03931-.05665q-.093-.16415-.18579-.32836c-.04419.0642-.08911.12817-.1333.19213-1.00293,1.45411-2.04,2.958-3.00342,3.04541a1.14467,1.14467,0,0,1-.93653-.40918,28.96129,28.96129,0,0,0-2.60351-2.25585l-.16919.299a28.45353,28.45353,0,0,1,2.53247,2.19708A1.53583,1.53583,0,0,0,45.344,20.95062Z" style="fill:#edc4a4"/><path d="M44.9812,17.643a.56792.56792,0,0,0,.064.00341.62926.62926,0,0,0,.44921-.209L47.491,15.4408a2.91165,2.91165,0,0,1-.14649-.334L45.25415,17.1972a.281.281,0,0,1-.23437.10791c-.32129-.03662-.75-.7246-1.20411-1.45312-.13476-.21594-.27832-.444-.42871-.6731a3.4,3.4,0,0,1-.165.37116c.10523.16394.20777.32654.30469.48212C44.06909,16.90131,44.49683,17.58734,44.9812,17.643Z" style="fill:#edc4a4"/><path d="M47.25806,14.01923a2.2107,2.2107,0,0,1,.15686-.4488,4.76407,4.76407,0,0,1-2.04065.577,4.59642,4.59642,0,0,1-2.39221-1.30463c.05578.0951.10974.19275.16565.28766a3.13994,3.13994,0,0,1,.19409.424,3.9016,3.9016,0,0,0,2.03247.9328A4.69161,4.69161,0,0,0,47.25806,14.01923Z" style="fill:#edc4a4"/><path d="M50.5542,8.01544l.01025-.01813c.05493-.09606.10706-.19348.162-.28955a8.4117,8.4117,0,0,0-2.35217-.56036,2.00894,2.00894,0,0,0-.449.0733c-.07812.13849-.15735.27649-.23547.415a2.59532,2.59532,0,0,1,.68445-.1485A8.32929,8.32929,0,0,1,50.5542,8.01544Z" style="fill:#edc4a4"/><path d="M42.49438,10.43744a8.69154,8.69154,0,0,1,1.571-1.09534l-.168-.29345a8.96777,8.96777,0,0,0-1.64331,1.14855.73642.73642,0,0,1-.73425.10657c.07116.12506.14367.24866.21521.3736.03418.00256.07361.01446.10644.01446A.883.883,0,0,0,42.49438,10.43744Z" style="fill:#edc4a4"/><path d="M51.49438,6.335a20.49462,20.49462,0,0,1-2.22692-1.4801q-.0846.14859-.16883.29742a21.18585,21.18585,0,0,0,2.23072,1.4776C51.38477,6.53174,51.43945,6.43323,51.49438,6.335Z" style="fill:#edc4a4"/><path d="M52.415,4.27686a4.80244,4.80244,0,0,1-2.047-1.06275,1.87188,1.87188,0,0,0-.24328.23566,5.1514,5.1514,0,0,0,2.24145,1.15961A1.70257,1.70257,0,0,0,52.415,4.27686Z" style="fill:#edc4a4"/><path d="M40.85815,3.7384a2.4785,2.4785,0,0,0-.20666-.27533c-.36609.19855-.809.42975-1.35339.70191-.32508.16253-.62183.28955-.90638.40173a2.172,2.172,0,0,0,.108.32813c.29748-.11664.61352-.25666.95068-.42517C40.0144,4.18768,40.47363,3.94775,40.85815,3.7384Z" style="fill:#edc4a4"/><path d="M42.08521,5.87012a7.28091,7.28091,0,0,1-2.8462.3883c.0625.11182.12647.22541.18909.33747a7.114,7.114,0,0,0,2.82507-.43048Q42.16932,6.01754,42.08521,5.87012Z" style="fill:#edc4a4"/><path d="M43.29871,8.00293l-.03663-.064c-.04309-.07641-.087-.15246-.13024-.22888a4.88753,4.88753,0,0,1-2.90418.31293c.07117.127.14124.25256.21277.3797a6.8726,6.8726,0,0,0,.81274.05334A4.47561,4.47561,0,0,0,43.29871,8.00293Z" style="fill:#edc4a4"/><path d="M45.55542,11.23718,45.34,11.5686l-.16883-.295c-.97363.09448-1.98132.22943-2.88147.36688.06092.10547.12122.21118.18225.31641a36.28815,36.28815,0,0,1,4.90235-.46967,11.37938,11.37938,0,0,0,1.26513-.072c.06958-.1239.13855-.24689.20752-.37048a10.52081,10.52081,0,0,1-1.47265.10266C46.82251,11.1474,46.20129,11.1817,45.55542,11.23718Z" style="fill:#edc4a4"/><path d="M45.49438,54.43744c1.96436-1.96387,2.9502-2.9502,7.87989-2.9502,2.80127,0,8.781-.94854,13.48242-1.77948l-.17737-.31372a104.65732,104.65732,0,0,1-13.305,1.75336c-5.07031,0-6.08985,1.019-8.12012,3.0498-2.11133,2.11133-6.0498,7.104-6.0498,9.12012a30.744,30.744,0,0,0,1.31445,5.65192l.23352-.41522a28.7073,28.7073,0,0,1-1.20813-5.2367C39.54419,61.42181,43.47485,56.457,45.49438,54.43744Z" style="fill:#edc4a4"/><path d="M36.051,67.04388c-.67774.11377-1.43653,1.61377-2.82959,4.47754-.86768,1.78369-1.85108,3.80518-2.99317,5.7085-2.14624,3.57745-.27539,6.6698,1.031,8.19873l.1687-.2998a6.35242,6.35242,0,0,1-.90772-7.72413c1.14942-1.916,2.13623-3.94482,3.00684-5.73437,1.05078-2.16016,2.04346-4.20068,2.58008-4.291a.15343.15343,0,0,1,.147.05811,29.20617,29.20617,0,0,1,2.6488,4.404l.19861-.35309a27.51854,27.51854,0,0,0-2.60718-4.29114A.4951.4951,0,0,0,36.051,67.04388Z" style="fill:#edc4a4"/><path d="M34.97192,74.74115A26.74814,26.74814,0,0,1,32.238,79.21527c-.91162,1.21582-1.19727,2.29541-.84864,3.20752a2.65408,2.65408,0,0,0,.91626,1.14575l.16846-.29925a2.291,2.291,0,0,1-.76733-.96857c-.30371-.7959-.03321-1.76562.80371-2.88135a27.145,27.145,0,0,0,2.76611-4.52588c.5-1,.71777-1.40625,1.09766-1.40625.28161,0,.70593.33271,1.15686.79267l.17566-.3122a2.35749,2.35749,0,0,0-1.33252-.82031C35.76929,73.1474,35.48608,73.71332,34.97192,74.74115Z" style="fill:#edc4a4"/><path d="M69.01807,53.52948l-.1875-.33142c-6.322.12329-17.12427.54657-18.57642,1.99914-1.11035,1.11042-2.49609,4.55848-3.53516,7.48951l.22413.39837c1.03955-2.96008,2.45825-6.55438,3.55126-7.64764C51.76538,54.16644,61.55908,53.66632,69.01807,53.52948Z" style="fill:#edc4a4"/><path d="M59.28,58.17572c-3.02734,2.01807-4.1294,6.07471-3.05811,8.21777a14.63837,14.63837,0,0,0,2.78223,3.29395A43.047,43.047,0,0,1,63.238,74.41937a23.103,23.103,0,0,1,2.31543,4.46c1.14209,2.62647,2.22119,5.10743,3.98242,5.54346a2.287,2.287,0,0,0,.55273.06738,3.94572,3.94572,0,0,0,2.39209-1.04c3.25244-2.60205,5.7041-6.52783,7.49366-9.39453q.17432-.27886.34252-.54742-.0952-.16809-.19018-.33612c-.144.22925-.29016.46264-.44043.70337-1.77734,2.8457-4.21094,6.74316-7.41846,9.30908a3.11115,3.11115,0,0,1-2.6499.9082c-1.59814-.396-2.64453-2.80176-3.75244-5.34863a23.36377,23.36377,0,0,0-2.355-4.52881,43.27546,43.27546,0,0,0-4.26612-4.76807,14.43175,14.43175,0,0,1-2.71777-3.206c-.98877-1.97754.103-5.88965,2.9419-7.78223,2.032-1.35626,8.42309-.81506,12.13464-.3584l-.21179-.37438C67.60864,57.26727,61.37634,56.77625,59.28,58.17572Z" style="fill:#edc4a4"/><path d="M60.81763,64.74261c.081.81739.79443,1.6045,2.4624,2.71631a24.8209,24.8209,0,0,1,6.94189,7.93457c.52735,1.0542,1.03321,1.77051,1.78858,1.83887.03857.00342.07715.00537.11621.00537.87695,0,1.92822-.87793,3.38379-2.81836,1.11975-1.493,2.104-2.99322,2.89758-4.28625q-.09576-.16965-.19189-.3393c-.80555,1.32123-1.817,2.87336-2.97815,4.42145-1.40186,1.86963-2.45117,2.75147-3.19678,2.67822-.59863-.05371-1.03857-.6997-1.51465-1.65234a25.245,25.245,0,0,0-7.0581-8.06543c-1.55176-1.03467-2.24317-1.77246-2.312-2.4668-.06-.603.32764-1.26123,1.33789-2.27148,1.36011-1.36011,7.1543-1.77136,10.48926-1.89588l-.19043-.33685c-3.40344.131-9.11047.5636-10.53906,1.99249C61.16284,63.288,60.74683,64.02533,60.81763,64.74261Z" style="fill:#edc4a4"/><path d="M69.5437,70.26312c.95264,1.32617,1.64258,2.28662,2.47022,2.28662h.019c.5-.00879.97119-.3706,1.48291-1.13818a2.85145,2.85145,0,0,0-.12744-3.06445c-1.36768-2.55567-5.18213-5.19971-6.01416-5.19971a1.79933,1.79933,0,0,0-1.78321.8999c-.33593.81055.22364,1.95117,1.66309,3.39014A22.09483,22.09483,0,0,1,69.5437,70.26312ZM65.905,64.17767a1.54279,1.54279,0,0,1,1.46924-.69043c.65869,0,4.36084,2.4917,5.71435,5.02051a2.54055,2.54055,0,0,1,.144,2.71533c-.438.65723-.83252.98-1.20606.98633l-.01172.00049c-.65381-.00049-1.33447-.94775-2.19482-2.145a22.304,22.304,0,0,0-2.32569-2.86768C66.19946,65.90228,65.635,64.82953,65.905,64.17767Z" style="fill:#edc4a4"/><path d="M71.78882,62.31781c-.15381.28662-.00147.65332.46533,1.11963a9.22114,9.22114,0,0,1,1.65479,3.42187c.43994,1.32032.78759,2.3628,1.41894,2.44776a.6607.6607,0,0,0,.082.00537c.34424,0,.69824-.28906,1.106-.90088.16919-.25385.33752-.49048.50586-.72968l-.18579-.32879c-.20032.28186-.40149.56732-.60327.87-.34522.51807-.65088.78077-.85938.74659-.4209-.05616-.7876-1.15528-1.1416-2.21827a9.41376,9.41376,0,0,0-1.73731-3.5542c-.46484-.46484-.43847-.65771-.40576-.71923.13111-.24457.93653-.28162,1.88086-.19324l-.20361-.36011C72.90918,61.86035,72.0127,61.89978,71.78882,62.31781Z" style="fill:#edc4a4"/><path d="M57.65894,72.13666a14.3949,14.3949,0,0,1-1.16456-.93946c-.97167-.97168-2.98925-7.0249-3.959-9.93359-.13867-.41748-.35156-.63086-.63135-.63476h-.00634c-.9209,0-2.31958,2.81964-3.36524,5.28149l.21558.38318c1.137-2.69031,2.46838-5.32434,3.1477-5.32434h.00342c.14941.002.25293.21972.314.40185,1.05274,3.15869,3.0127,9.03809,4.041,10.06641a14.08008,14.08008,0,0,0,1.19873.96973c1.67529,1.27685,4.47949,3.41406,3.769,4.834-.47754.95544-1.88879,3.31256-3.222,5.49762l.19128.34c1.36572-2.23609,2.842-4.69831,3.33545-5.68525C62.36255,75.72113,59.532,73.5639,57.65894,72.13666Z" style="fill:#edc4a4"/><path d="M52.49438,67.1972a.61835.61835,0,0,0-.52929-.17626c-.54248.06671-1.25684.76879-1.91748,1.58264l.18164.32275c.65088-.82129,1.32544-1.51245,1.77734-1.568a.27758.27758,0,0,1,.24756.0791,14.63868,14.63868,0,0,1,2.9502,7.87988,5.54316,5.54316,0,0,1-.34839,1.83319l.22412.39814a6.15307,6.15307,0,0,0,.46411-2.23133A15.08374,15.08374,0,0,0,52.49438,67.1972Z" style="fill:#edc4a4"/><path d="M53.19556,70.63129c-.37134-.1554-1.00611.156-1.663.61169l.1698.302c.60083-.42529,1.12183-.69726,1.36328-.59973.0918.03809.13868.16358.13868.37207a12.08826,12.08826,0,0,1-.30079,2.36279l.252.44776a13.4308,13.4308,0,0,0,.38867-2.81055C53.54419,70.958,53.427,70.727,53.19556,70.63129Z" style="fill:#edc4a4"/><path d="M62.55981,81.1474a.7375.7375,0,0,1,.69434.29c1.99854,1.999,5.01953,5.01953,7.044,6.03223,2.1997,1.10009,5.25488.86914,7.22851-3.07618a31.0641,31.0641,0,0,1,4.85327-7.23614c-.05688-.10053-.11316-.20123-.16992-.30176a31.10086,31.10086,0,0,0-4.988,7.38556c-2.34179,4.68506-5.77441,3.42285-6.77148,2.92383-1.97559-.98731-4.97266-3.98438-6.95606-5.96778a1.05683,1.05683,0,0,0-1.019-.37939c-1.05322.27-1.728,2.58691-2.38037,4.82764-.05322.18292-.10535.35974-.15771.53717l.23217.41247q.12452-.41454.2522-.85443C60.98853,83.79291,61.69458,81.36908,62.55981,81.1474Z" style="fill:#edc4a4"/><path d="M85.03735,81.87372l-.166-.29456a12.32165,12.32165,0,0,0-3.64942,4.662l-3.74707,7.49426h.38086l3.6709-7.34192A11.9458,11.9458,0,0,1,85.03735,81.87372Z" style="fill:#edc4a4"/><path d="M87.24829,85.79773q-.08734-.15537-.175-.31067a19.28986,19.28986,0,0,0-2.85132,3.75409c-.52551,1.051-1.33068,2.93988-1.97607,4.49426h.368c.63355-1.52252,1.4054-3.3277,1.91272-4.34192A18.57166,18.57166,0,0,1,87.24829,85.79773Z" style="fill:#edc4a4"/><path d="M89.14746,89.17133l-.16772-.298c-1.3628.99-2.77539,2.1983-2.77539,3.444a5.04979,5.04979,0,0,1-.19873,1.41809h.35815a5.50884,5.50884,0,0,0,.18042-1.41809C86.54419,91.234,87.85828,90.1098,89.14746,89.17133Z" style="fill:#edc4a4"/><path d="M88.20435,92.31732a7.05424,7.05424,0,0,1-.249,1.41809h.3501a7.04333,7.04333,0,0,0,.23877-1.41809c0-.41882.77356-.91577,1.59558-1.38336l-.167-.29669C89.012,91.1828,88.20435,91.71545,88.20435,92.31732Z" style="fill:#edc4a4"/><path d="M73.66821,90.87689c-.45068-.72949-1.83154-.72949-3.29394-.72949-1.92334,0-4.917-1.9873-6.87989-3.9502a1.29547,1.29547,0,0,0-1.13476-.44238,3.18448,3.18448,0,0,0-1.79614,1.54065l.187.33258c.53027-.80359,1.10107-1.45367,1.65942-1.5368a.96071.96071,0,0,1,.84424.34619c1.9502,1.95068,5.01074,4.0498,7.12012,4.0498,1.30469,0,2.65381,0,3.00488.56836.15967.25879.10693.65772-.15723,1.18555a11.76813,11.76813,0,0,1-.91357,1.49426h.41394a11.74385,11.74385,0,0,0,.80432-1.34192A1.53557,1.53557,0,0,0,73.66821,90.87689Z" style="fill:#edc4a4"/><path d="M68.69653,93.30121c.07618-.32373-.63574-.83106-5.24609-3.13623a1.18978,1.18978,0,0,0-1.21094-.02588c-.019.01172-.03186.03363-.05.04657l.16822.29925c.02148-.01641.03857-.04242.061-.05627a.86121.86121,0,0,1,.8794.041,49.96942,49.96942,0,0,1,4.94873,2.68994,2.25648,2.25648,0,0,0-.95484.5758h.53931a1.0719,1.0719,0,0,1,.543-.24817C68.60425,93.48724,68.67651,93.38617,68.69653,93.30121Z" style="fill:#edc4a4"/></g><circle cx="74.37636" cy="11.95691" r="11.95691" style="fill:#edc4a4"/><polygon points="45.374 74.218 34.507 93.625 56.242 93.625 45.374 74.218" style="fill:none"/><polygon points="56.242 93.625 59.491 93.625 45.374 68.416 31.258 93.625 34.507 93.625 45.374 74.218 56.242 93.625" style="fill:#edc4a4"/></g></g></svg>